<?xml version="1.0" encoding="UTF-8"?>
<svg id="_レイヤー_1" xmlns="http://www.w3.org/2000/svg" version="1.1" viewBox="0 0 160 160">
  <!-- Generator: Adobe Illustrator 29.6.1, SVG Export Plug-In . SVG Version: 2.1.1 Build 9)  -->
  <defs>
    <style>
      .st0 {
        fill: #e65d3e;
      }
    </style>
  </defs>
  <path class="st0" d="M107.64,86.01c-.21-1.38-3.09-1.39-3.27.08v9.63c-.08.23-1.03.22-1.09,0-.1-1.72-.54-9.49-.55-9.67-.22-1.42-3.04-1.42-3.27,0-.01.18-.45,7.94-.55,9.67-.06.22-1,.23-1.09,0v-9.63c-.18-1.48-3.05-1.46-3.27-.08-.06.32-1.1,6.43-1.1,8.78,0,3.56,1.89,6.11,4.7,7.13l-.88,24.24c-.04.95.71,1.73,1.64,1.73h4.36c.94,0,1.69-.8,1.64-1.73l-.88-24.24c2.8-1.02,4.7-3.56,4.7-7.13,0-2.34-1.05-8.46-1.1-8.78h.01Z"/>
  <path class="st0" d="M120.19,84.97c-5.63,0-15.1,12.17-4.43,20.52h0s-1.02,20.63-1.02,20.63c-.08.95.68,1.77,1.63,1.77h3.82c.91,0,1.64-.73,1.64-1.64v-39.64c0-.9-.73-1.64-1.64-1.64Z"/>
  <path class="st0" d="M119.51,79.15v-7.6c0-2.97-1.31-5.75-3.59-7.65l-30.67-26.71-.13-.11c-3.64-2.97-8.93-2.97-12.57,0l-.06.05-30.73,26.76c-2.28,1.9-3.59,4.68-3.59,7.65v38.4c0,5.5,4.46,9.95,9.95,9.95h40.48c.48.01.87-.38.87-.86v-8.49c0-.48-.39-.87-.87-.87h-40.2v-37.99l30.44-26.5,30.42,26.48.02.02v7.47c0,.48.39.87.87.87h8.49c.48,0,.87-.39.87-.87Z"/>
</svg>