<?xml version="1.0" encoding="UTF-8"?>
<svg id="_レイヤー_1" xmlns="http://www.w3.org/2000/svg" version="1.1" viewBox="0 0 160 160">
  <!-- Generator: Adobe Illustrator 29.6.1, SVG Export Plug-In . SVG Version: 2.1.1 Build 9)  -->
  <defs>
    <style>
      .st0 {
        fill: #e65d3e;
      }
    </style>
  </defs>
  <path class="st0" d="M33.28,90.27h96.89c.52,0,1.05-.1,1.5-.36,1.91-1.09,2.32-3.33,1.3-4.92l-24.67-38.37c-.05-.08-3.63-4.94-4.54-6.15-2-2.67-7.54-2.39-9.39.39-1.22,1.84-2.19,3.31-2.23,3.37l-17.82,27.05-11.21-15.22c-2.61-3.54-7.9-3.54-10.51,0l-21.71,29.48c-1.44,1.96-.04,4.73,2.39,4.73ZM95.97,50.3c1.53-2.39,5.02-2.39,6.56,0l5.87,9.12h-9.15s-9.34,8.15-9.34,8.15l-5.36.5,11.42-17.77ZM54.82,63.87c1.53-2.39,5.02-2.39,6.56,0l5.87,9.12-3.37,1.27-6.67-2.34-10.04,3.85,7.65-11.9Z"/>
  <path class="st0" d="M132.28,113.79h-.02c-1.96-.22-3.84-.91-5.28-1.99-1.29-.97-3.12-.98-4.4,0-3.46,2.65-9.78,2.65-13.29-.13-1.23-.98-3.01-.79-4.26.16-3.47,2.62-9.75,2.61-13.25-.15-1.23-.98-3.04-.78-4.3.17-1.41,1.06-3.28,1.75-5.26,1.95-.07,0-.13.02-.19.03-.07-.02-.14-.04-.22-.04-1.96-.21-3.84-.91-5.28-1.99-1.29-.97-3.12-.98-4.4,0-3.46,2.65-9.78,2.65-13.29-.13-1.23-.98-3.01-.79-4.26.16-3.47,2.62-9.75,2.61-13.25-.15-1.23-.98-3.04-.78-4.3.17-1.41,1.06-3.28,1.75-5.26,1.95-.72.07-1.24.68-1.24,1.37v2.8c0,.79.69,1.46,1.52,1.39,2.63-.22,5.12-.99,7.24-2.26,5.16,3.01,12.5,2.97,17.52,0,5.16,3.01,12.5,2.97,17.52,0,2.13,1.24,4.64,2.03,7.22,2.25.16.01.32,0,.47-.04.16.04.32.06.5.05,2.63-.22,5.12-.99,7.24-2.26,5.16,3.01,12.5,2.97,17.52,0,5.16,3.01,12.5,2.97,17.52,0,2.13,1.24,4.64,2.03,7.22,2.25.83.07,1.52-.6,1.52-1.39v-2.75c0-.7-.52-1.34-1.26-1.42Z"/>
  <path class="st0" d="M132.28,101.59h-.02c-1.96-.22-3.84-.91-5.28-1.99-1.29-.97-3.12-.98-4.4,0-3.46,2.65-9.78,2.65-13.29-.13-1.23-.98-3.01-.79-4.26.16-3.47,2.62-9.75,2.61-13.25-.15-1.23-.98-3.04-.78-4.3.17-1.41,1.06-3.28,1.75-5.26,1.95-.07,0-.13.02-.19.03-.07-.02-.14-.04-.22-.04-1.96-.21-3.84-.91-5.28-1.99-1.29-.97-3.12-.98-4.4,0-3.46,2.65-9.78,2.65-13.29-.13-1.23-.98-3.01-.79-4.26.16-3.47,2.62-9.75,2.61-13.25-.15-1.23-.98-3.04-.78-4.3.17-1.41,1.06-3.28,1.75-5.26,1.95-.72.07-1.24.68-1.24,1.37v2.8c0,.79.69,1.46,1.52,1.39,2.63-.22,5.12-.99,7.24-2.26,5.16,3.01,12.5,2.97,17.52,0,5.16,3.01,12.5,2.97,17.52,0,2.13,1.24,4.64,2.03,7.22,2.25.16,0,.32,0,.47-.04.16.04.32.06.5.05,2.63-.22,5.12-.99,7.24-2.26,5.16,3.01,12.5,2.97,17.52,0,5.16,3.01,12.5,2.97,17.52,0,2.13,1.24,4.64,2.03,7.22,2.25.83.07,1.52-.6,1.52-1.39v-2.75c0-.7-.52-1.34-1.26-1.42Z"/>
</svg>