<svg width="400" height="28" viewBox="0 0 400 28" fill="none"
    xmlns="http://www.w3.org/2000/svg">
    <path d="M60.884 20.8198C60.6489 20.5259 60.2375 20.5024 59.9436 20.7375C58.3566 22.0424 56.3347 22.8417 54.1012 22.8417C48.3881 22.8417 43.8623 17.5872 45.1201 11.6626C45.8725 8.10075 48.7878 5.26776 52.3614 4.60948C55.265 4.08049 57.9452 4.90335 59.9436 6.54908C60.2257 6.78418 60.6489 6.76067 60.8722 6.46679L62.6355 4.26858C62.8589 3.99821 62.8236 3.58678 62.5532 3.35168C60.2492 1.4591 57.3104 0.318848 54.1012 0.318848C46.5896 0.318848 40.5121 6.57258 40.8059 14.1429C41.0646 20.9961 46.7306 26.6621 53.584 26.9207C56.993 27.05 60.1317 25.898 62.565 23.8997C62.8354 23.6763 62.8706 23.2649 62.6473 22.9945L60.884 20.7963V20.8198Z" fill="#ECE9E8"/>
    <path d="M78.9279 0.342285C71.5926 0.342285 65.6209 6.3139 65.6209 13.6491C65.6209 20.9843 71.5926 26.9559 78.9279 26.9559C86.2632 26.9559 92.2349 20.9843 92.2349 13.6491C92.2349 6.3139 86.2632 0.342285 78.9279 0.342285ZM78.9279 22.8416C73.8614 22.8416 69.7353 18.7156 69.7353 13.6491C69.7353 8.58264 73.8614 4.45659 78.9279 4.45659C83.9944 4.45659 88.1205 8.58264 88.1205 13.6491C88.1205 18.7156 83.9944 22.8416 78.9279 22.8416Z" fill="#ECE9E8"/>
    <path d="M36.5627 0.354004H21.9978C21.6217 0.354004 21.316 0.659638 21.316 1.0358V26.0508C21.316 26.4269 21.6217 26.7326 21.9978 26.7326H36.5627C36.9388 26.7326 37.2445 26.4269 37.2445 26.0508V23.3C37.2445 22.9239 36.9388 22.6182 36.5627 22.6182H26.1122C25.736 22.6182 25.4304 22.3126 25.4304 21.9365V15.4476H34.7523C35.3989 15.4476 35.9161 15.1537 35.9161 14.8011V12.2855C35.9161 11.9211 35.3989 11.6389 34.7523 11.6389H25.4304V5.1501C25.4304 4.77394 25.736 4.46831 26.1122 4.46831H36.5627C36.9388 4.46831 37.2445 4.16267 37.2445 3.78651V1.0358C37.2445 0.659638 36.9388 0.354004 36.5627 0.354004Z" fill="#ECE9E8"/>
    <path d="M139.937 3.84565C135.188 -0.28041 128.441 0.471919 125.255 0.236816H123.292C122.916 0.236816 122.61 0.54245 122.61 0.918615V26.1922C122.61 26.5683 122.916 26.874 123.292 26.874H126.889V26.8387C127.289 26.8622 127.735 26.874 128.206 26.874C131.556 26.874 136.411 26.2745 139.879 23.3474C142.606 21.0199 143.993 17.7285 143.993 13.5319C143.993 9.3353 142.629 6.17317 139.937 3.8574V3.84565ZM137.116 20.056C134.424 22.3482 130.192 22.6421 127.547 22.5716C127.183 22.5716 126.889 22.266 126.889 21.8898V5.09169C126.889 4.71553 127.195 4.40989 127.559 4.40989C130.251 4.37463 134.471 4.75079 137.151 7.07831C138.879 8.58297 139.714 10.6871 139.714 13.5201C139.714 16.3531 138.856 18.5631 137.116 20.056Z" fill="#ECE9E8"/>
    <path d="M117.285 0.236816H114.534C114.158 0.236816 113.853 0.54245 113.853 0.918615V18.7394C113.853 19.0568 113.429 19.1861 113.265 18.9157L101.462 0.554205C101.333 0.354368 101.122 0.236816 100.886 0.236816H97.4422C97.066 0.236816 96.7604 0.54245 96.7604 0.918615V26.1687C96.7604 26.5448 97.066 26.8505 97.4422 26.8505H100.193C100.569 26.8505 100.875 26.5448 100.875 26.1687V8.33611C100.875 8.01872 101.298 7.88942 101.462 8.15978L113.277 26.5448C113.406 26.7447 113.617 26.8622 113.853 26.8622H117.285C117.661 26.8622 117.967 26.5566 117.967 26.1804V0.918615C117.967 0.54245 117.661 0.236816 117.285 0.236816Z" fill="#ECE9E8"/>
    <path d="M9.37255 0.0143246C6.79814 -0.103227 4.56464 0.731388 2.88363 2.42413C0.744167 4.61059 0.0623594 7.9608 1.19087 10.782C1.88443 12.51 3.51842 14.7083 7.33889 15.3665C13.0872 16.354 12.7698 18.4817 12.5112 20.1862C12.4172 20.8092 11.6648 21.8436 10.8772 22.2198C9.57239 22.8311 8.03245 22.9604 6.53953 22.596C5.04661 22.2316 4.27076 21.5145 3.90634 20.0921C3.82405 19.7747 3.49491 19.5749 3.16576 19.6337L0.556082 20.0804C0.191668 20.1391 -0.0669488 20.5035 0.0153383 20.868C0.720656 23.842 2.58975 25.7111 5.5991 26.4399C6.45724 26.6515 7.32713 26.7573 8.19703 26.7573C9.71346 26.7573 11.1946 26.4399 12.5465 25.8169C14.4979 24.9117 16.1201 22.7958 16.4257 20.7857C17.1898 15.6369 14.4391 12.5923 8.00894 11.4873C6.3632 11.2052 5.34049 10.4999 4.85852 9.3244C4.30602 7.94905 4.64693 6.29157 5.7049 5.22185C6.58655 4.31671 7.72681 3.91703 9.18447 3.98756C11.9705 4.11687 12.8756 6.35035 13.146 7.43182C13.2283 7.74921 13.5339 7.94905 13.8513 7.90203L16.4845 7.58464C16.8724 7.53762 17.1311 7.17321 17.0488 6.79704C16.5198 4.21091 14.4038 0.261183 9.37255 0.0143246Z" fill="#ECE9E8"/>
    <path d="M200.723 0.35404H186.158C185.782 0.35404 185.477 0.659674 185.477 1.03584V26.0508C185.477 26.427 185.782 26.7326 186.158 26.7326H200.723C201.099 26.7326 201.405 26.427 201.405 26.0508V23.3001C201.405 22.9239 201.099 22.6183 200.723 22.6183H190.273C189.897 22.6183 189.591 22.3126 189.591 21.9365V15.4476H199.019C199.606 15.4476 200.088 15.1538 200.088 14.8011V12.2855C200.088 11.9211 199.606 11.639 199.019 11.639H189.591V5.15014C189.591 4.77397 189.897 4.46834 190.273 4.46834H200.723C201.099 4.46834 201.405 4.16271 201.405 3.78654V1.02408C201.405 0.647919 201.099 0.342285 200.723 0.342285V0.35404Z" fill="#ECE9E8"/>
    <path d="M174.227 15.7065C174.121 15.5419 174.192 15.3186 174.38 15.2363C176.931 14.1901 179.447 12.0389 179.447 8.13617C179.447 4.70366 177.46 2.047 174.004 0.85973C173.357 0.636382 172.675 0.47181 171.958 0.389524C171.418 0.307238 170.865 0.271973 170.289 0.271973H162.237C161.872 0.271973 161.578 0.565851 161.578 0.930261V26.3331C161.578 26.6975 161.872 26.9914 162.237 26.9914H165.023C165.387 26.9914 165.681 26.6975 165.681 26.3331V5.05632C165.681 4.69191 165.975 4.39803 166.339 4.39803H170.277C171.171 4.39803 171.958 4.51558 172.652 4.76244C175.05 5.5853 175.32 7.08996 175.32 8.14792C175.32 11.5334 171.065 11.9331 170.595 11.9683L169.055 12.0624C168.185 12.1094 167.691 13.0851 168.161 13.8139L176.331 26.7093C176.449 26.8974 176.661 27.0149 176.896 27.0149H180.187C180.704 27.0149 181.022 26.4389 180.751 25.9922L174.227 15.6947V15.7065Z" fill="#ECE9E8"/>
    <path d="M314.478 15.7885C314.372 15.6239 314.443 15.4006 314.631 15.3183C317.182 14.2721 319.697 12.1209 319.697 8.2182C319.697 4.78569 317.711 2.12903 314.255 0.941761C313.608 0.718413 312.926 0.553841 312.209 0.471555C311.668 0.389269 311.116 0.354004 310.54 0.354004H302.488C302.123 0.354004 301.829 0.647883 301.829 1.01229V26.4152C301.829 26.7796 302.123 27.0735 302.488 27.0735H305.274C305.638 27.0735 305.932 26.7796 305.932 26.4152V5.13835C305.932 4.77394 306.226 4.48006 306.59 4.48006H310.528C311.422 4.48006 312.209 4.59761 312.903 4.84447C315.301 5.66733 315.571 7.17199 315.571 8.22995C315.571 11.6154 311.316 12.0151 310.846 12.0504L309.306 12.1444C308.436 12.2032 307.942 13.1671 308.412 13.8959L316.582 26.7913C316.7 26.9794 316.911 27.097 317.146 27.097H320.438C320.955 27.097 321.272 26.521 321.002 26.0743L314.478 15.7768V15.7885Z" fill="#ECE9E8"/>
    <path d="M295.681 0.236816H292.895C292.531 0.236816 292.237 0.530695 292.237 0.895105V16.8233C292.237 17.8108 291.896 22.7479 286.571 22.7479C286.548 22.7479 286.524 22.7479 286.501 22.7479C281.234 22.7127 280.893 17.799 280.87 16.8351V0.895105C280.87 0.530695 280.576 0.236816 280.212 0.236816H277.426C277.061 0.236816 276.767 0.530695 276.767 0.895105V16.8468C276.779 20.2911 278.824 26.8034 286.477 26.8622C286.512 26.8622 286.548 26.8622 286.583 26.8622C289.369 26.8622 291.661 25.9923 293.377 24.2878C296.328 21.3608 296.363 17.0114 296.363 16.8351V0.895105C296.363 0.530695 296.069 0.236816 295.705 0.236816H295.681Z" fill="#ECE9E8"/>
    <path d="M261.121 0.624736C261.016 0.389633 260.78 0.236816 260.522 0.236816H257.853C257.595 0.236816 257.36 0.389633 257.254 0.624736L246.004 25.9453C245.816 26.3803 246.133 26.8622 246.604 26.8622H249.66C249.919 26.8622 250.154 26.7094 250.259 26.4743L253.116 20.056H265.106C265.236 20.056 265.353 20.1265 265.4 20.2441L268.186 26.4743C268.292 26.7094 268.527 26.8622 268.786 26.8622H271.866C272.336 26.8622 272.653 26.3685 272.465 25.9453L261.121 0.624736ZM263.108 16.2356H254.82L258.9 7.0548C259.017 6.79619 259.382 6.79619 259.487 7.0548L263.39 15.7771C263.484 15.9887 263.331 16.2356 263.096 16.2356H263.108Z" fill="#ECE9E8"/>
    <path d="M339.575 0.706767C339.47 0.471665 339.234 0.318848 338.976 0.318848H336.307C336.049 0.318848 335.814 0.471665 335.708 0.706767L324.458 26.0273C324.27 26.4623 324.587 26.9443 325.058 26.9443H328.114C328.373 26.9443 328.608 26.7914 328.713 26.5563L331.57 20.138H343.56C343.69 20.138 343.807 20.2086 343.854 20.3261L346.64 26.5563C346.746 26.7914 346.981 26.9443 347.24 26.9443H350.32C350.79 26.9443 351.107 26.4505 350.919 26.0273L339.575 0.706767ZM341.55 16.3176H333.263L337.342 7.13683C337.459 6.87822 337.824 6.87822 337.93 7.13683L341.832 15.8591C341.926 16.0707 341.774 16.3176 341.538 16.3176H341.55Z" fill="#ECE9E8"/>
    <path d="M245.287 0.236816H227.619C227.254 0.236816 226.961 0.530695 226.961 0.895105V3.68107C226.961 4.04548 227.254 4.33936 227.619 4.33936H234.202C234.39 4.33936 234.531 4.49218 234.531 4.66851V26.1687C234.531 26.5331 234.825 26.827 235.189 26.827H237.975C238.34 26.827 238.634 26.5331 238.634 26.1687V4.68026C238.634 4.49218 238.786 4.35112 238.963 4.35112H245.264C245.628 4.35112 245.922 4.05724 245.922 3.69283V0.895105C245.922 0.530695 245.628 0.236816 245.264 0.236816H245.287Z" fill="#ECE9E8"/>
    <path d="M399.362 0.318848H381.694C381.33 0.318848 381.036 0.612726 381.036 0.977136V3.76311C381.036 4.12752 381.33 4.42139 381.694 4.42139H388.277C388.465 4.42139 388.606 4.57421 388.606 4.75054V26.2507C388.606 26.6151 388.9 26.909 389.264 26.909H392.05C392.415 26.909 392.709 26.6151 392.709 26.2507V4.76229C392.709 4.57421 392.861 4.43315 393.038 4.43315H399.339C399.703 4.43315 399.997 4.13927 399.997 3.77486V0.977136C399.997 0.612726 399.703 0.318848 399.339 0.318848H399.362Z" fill="#ECE9E8"/>
    <path d="M375.993 0.318848H373.242C372.866 0.318848 372.56 0.624481 372.56 1.00065V18.8214C372.56 19.1388 372.137 19.2681 371.973 18.9978L360.17 0.636237C360.041 0.436399 359.829 0.318848 359.594 0.318848H356.15C355.774 0.318848 355.468 0.624481 355.468 1.00065V26.2507C355.468 26.6269 355.774 26.9325 356.15 26.9325H358.901C359.277 26.9325 359.583 26.6269 359.583 26.2507V8.41814C359.583 8.10075 360.006 7.97145 360.17 8.24182L371.984 26.6269C372.114 26.8267 372.325 26.9443 372.56 26.9443H375.993C376.369 26.9443 376.675 26.6386 376.675 26.2625V1.00065C376.675 0.624481 376.369 0.318848 375.993 0.318848Z" fill="#ECE9E8"/>
    <path d="M215.006 0.013038C212.431 -0.116269 210.198 0.718346 208.517 2.42284C206.366 4.59754 205.695 7.95952 206.824 10.769C207.518 12.497 209.152 14.6952 212.972 15.3535C218.72 16.3409 218.403 18.4686 218.144 20.1731C218.05 20.7961 217.298 21.8306 216.51 22.2067C215.205 22.818 213.666 22.9473 212.173 22.5829C210.68 22.2185 209.904 21.5014 209.539 20.0791C209.457 19.7617 209.128 19.5618 208.799 19.6206L206.189 20.0673C205.825 20.1261 205.566 20.4905 205.648 20.8549C206.354 23.829 208.223 25.698 211.232 26.4268C212.09 26.6384 212.96 26.7442 213.83 26.7442C215.347 26.7442 216.828 26.4268 218.18 25.8038C220.131 24.8987 221.753 22.7828 222.059 20.7726C222.823 15.6239 220.072 12.5793 213.642 11.4743C211.996 11.1922 210.974 10.4869 210.492 9.31136C209.939 7.93601 210.28 6.27853 211.338 5.20881C212.22 4.30367 213.36 3.90399 214.818 3.97452C217.604 4.10383 218.509 6.33731 218.779 7.41878C218.861 7.73617 219.167 7.93601 219.484 7.88899L222.118 7.5716C222.506 7.52458 222.764 7.16017 222.682 6.784C222.129 4.22138 220.025 0.259896 214.982 0.0247932L215.006 0.013038Z" fill="#ECE9E8"/>
</svg>
