<svg width="40" height="24" viewBox="0 0 40 24" fill="none" xmlns="http://www.w3.org/2000/svg">
<path d="M27.1688 0H21.8C21.3 0 20.8188 0.187432 20.45 0.52481L14.3062 6.14777C14.3062 6.14777 14.2938 6.16651 14.2875 6.17276C13.25 7.14741 13.2688 8.70309 14.1562 9.67149C14.95 10.5399 16.6187 10.7711 17.6625 9.84018C17.6688 9.83393 17.6812 9.83393 17.6875 9.82769L22.6813 5.25434C23.0875 4.88573 23.725 4.91072 24.0938 5.31682C24.4688 5.72292 24.4375 6.35395 24.0312 6.72881L22.4 8.22202L31.5 15.6068C31.6813 15.7568 31.8438 15.9192 31.9937 16.0879V3.99855L28.5812 0.587287C28.2125 0.212423 27.7 0 27.1688 0ZM34 4.01104V17.9997C34 19.1056 34.8937 19.999 36 19.999H40V4.01104H34ZM0 19.9927H4C5.10625 19.9927 6 19.0993 6 17.9935V4.01104H0V19.9927ZM30.2437 17.1625L20.9125 9.59027L19.0375 11.3084C17.1812 13.0015 14.3375 12.8391 12.6813 11.0335C11 9.19666 11.1312 6.35395 12.9562 4.67955L18.0688 0H12.8313C12.3 0 11.7938 0.212423 11.4188 0.587287L8 3.99855V17.9872H9.14375L14.8 23.1041C16.5125 24.4974 19.0312 24.235 20.425 22.5231L20.4375 22.5106L21.5563 23.479C22.55 24.2912 24.0188 24.135 24.825 23.1416L26.7875 20.73L27.125 21.0049C27.9813 21.6984 29.2438 21.5734 29.9375 20.7112L30.5312 19.9803C31.2312 19.1181 31.1 17.8623 30.2437 17.1625Z" fill="#E65D3E"/>
</svg>
