<svg width="24" height="44" viewBox="0 0 24 44" fill="none" xmlns="http://www.w3.org/2000/svg">
<path d="M20.216 0H3.56794C1.59746 0 0 1.59746 0 3.56794V40.4321C0 42.4008 1.59746 44 3.56794 44H20.216C22.1848 44 23.784 42.4025 23.784 40.4321V3.56794C23.784 1.59746 22.1848 0 20.216 0ZM21.102 37.2803C21.102 37.7587 20.6633 38.149 20.128 38.149H3.89952C3.36416 38.149 2.9255 37.757 2.9255 37.2803V4.58859C2.9255 4.11021 3.36416 3.71992 3.89952 3.71992H20.1297C20.665 3.71992 21.1037 4.11194 21.1037 4.58859V37.2821L21.102 37.2803ZM14.5498 6.73522H9.47767C9.3136 6.73522 9.18063 6.60225 9.18063 6.43818V5.1205C9.18063 4.95643 9.3136 4.82346 9.47767 4.82346H14.5498C14.7139 4.82346 14.8468 4.95643 14.8468 5.1205V6.43818C14.8468 6.60225 14.7139 6.73522 14.5498 6.73522Z" fill="#E65D3E"/>
</svg>
