<svg width="119" height="85" viewBox="0 0 119 85" fill="none"
    xmlns="http://www.w3.org/2000/svg">
    <path d="M111.219 59.9061C107.942 57.8117 104.128 56.2671 99.8571 55.296V53.494C99.8571 52.2888 98.8742 51.3176 97.669 51.3176H83.5928C82.3876 51.3176 81.4047 52.2888 81.4047 53.494V55.296C77.1456 56.2671 73.3311 57.8117 70.0431 59.9061C60.3898 66.0725 62.4024 82.5943 62.496 83.2963L62.6598 84.6185H118.602L118.766 83.2963C118.789 83.0857 119 81.4008 119 78.9787C119 73.4792 117.923 64.1887 111.219 59.9061ZM77.5083 66.2246L75.3787 81.5763H65.3978C65.1521 77.7501 65.0585 66.7044 71.6812 62.4686C73.4481 61.3453 75.4021 60.3859 77.5083 59.6136V66.2246ZM100.571 63.0303H80.691V58.619C81.51 58.385 82.3525 58.1978 83.2184 58.0223L84.447 57.7765V54.3599H96.8149V57.7765L98.0435 58.0223C98.9093 58.1978 99.7518 58.385 100.571 58.619V63.0303ZM115.864 81.5763H105.895L103.765 66.2246C103.765 66.2246 103.754 66.2012 103.754 66.1895V59.6136C105.86 60.3859 107.814 61.3453 109.581 62.4686C116.203 66.7044 116.11 77.7501 115.864 81.5763Z" fill="#E65D3E"/>
    <path d="M113.735 50.0421L107.311 35.8489C107.229 35.7903 107.135 35.7318 107.042 35.6616C107.053 35.5563 107.065 35.4393 107.077 35.3223L107.311 35.8489C107.311 35.8489 107.346 35.8605 107.358 35.8722C107.358 35.8722 111.898 15.4541 91.187 14.8456C90.9997 14.8339 90.8242 14.8222 90.637 14.8339C90.4498 14.8222 90.2626 14.8339 90.0754 14.8456C69.3647 15.4541 73.9047 35.8722 73.9047 35.8722C74.01 35.802 74.1153 35.7435 74.2323 35.6616C75.2737 43.7119 81.9549 49.9368 90.0052 49.9368H91.2689C94.2175 49.9368 97.1076 49.0943 99.6116 47.4913C100.712 46.7892 101.706 45.9702 102.584 45.0458C102.584 45.0926 102.607 45.1277 102.619 45.1745L104.678 53.9034C105.006 54.6991 105.918 55.0852 106.714 54.7459L112.927 52.1015C113.723 51.7621 114.086 50.8261 113.735 50.0421ZM97.9735 44.9171C95.9609 46.2042 93.6325 46.8945 91.2689 46.8945H90.0052C82.9612 46.8945 77.2394 40.9622 77.1341 33.6491C82.1772 29.8931 87.665 24.5691 90.6721 20.8014C93.6676 24.5691 99.0968 29.8814 104.128 33.6374C104.07 38.2826 101.776 42.4833 97.9735 44.9171Z" fill="#E65D3E"/>
    <path d="M107.311 35.8491C107.229 35.7905 107.135 35.732 107.042 35.6618C107.053 35.5565 107.065 35.4395 107.077 35.3225L107.311 35.8491Z" fill="#E65D3E"/>
    <path d="M84.9149 36.6915C86.0135 36.6915 86.9041 35.8009 86.9041 34.7023C86.9041 33.6037 86.0135 32.7131 84.9149 32.7131C83.8164 32.7131 82.9258 33.6037 82.9258 34.7023C82.9258 35.8009 83.8164 36.6915 84.9149 36.6915Z" fill="#E65D3E"/>
    <path d="M96.3466 36.6915C97.4452 36.6915 98.3357 35.8009 98.3357 34.7023C98.3357 33.6037 97.4452 32.7131 96.3466 32.7131C95.248 32.7131 94.3574 33.6037 94.3574 34.7023C94.3574 35.8009 95.248 36.6915 96.3466 36.6915Z" fill="#E65D3E"/>
    <path d="M91.1867 14.8459C90.9994 14.8342 90.8239 14.8225 90.6367 14.8342C90.8122 14.8225 90.9994 14.8225 91.175 14.8225C91.175 14.8225 91.175 14.8342 91.1867 14.8459Z" fill="#E65D3E"/>
    <path d="M90.0869 14.8225C90.2741 14.8225 90.4496 14.8225 90.6368 14.8342C90.4496 14.8225 90.2624 14.8342 90.0752 14.8459C90.0869 14.8342 90.0869 14.8225 90.0869 14.8225Z" fill="#E65D3E"/>
    <path d="M107.311 35.8491C107.229 35.7905 107.135 35.732 107.042 35.6618C107.053 35.5565 107.065 35.4395 107.077 35.3225L107.311 35.8491Z" fill="#E65D3E"/>
    <path d="M43.4543 24.6514C43.6064 24.2184 43.6415 23.7504 43.5596 23.3175L40.8684 3.01633C40.5993 1.58881 39.3473 0.559131 37.9081 0.641037L19.1281 1.17928C17.6771 1.22608 16.4954 2.31427 16.3198 3.82369L15.1263 23.5047C15.0795 23.9025 15.1146 24.3004 15.2199 24.6748C13.6871 27.2022 12.7979 30.1976 12.7979 33.4037V34.7142C12.7979 43.8175 19.9354 51.2125 28.7111 51.2125H29.9748C32.9352 51.2125 35.8253 50.3584 38.3293 48.767C43.0682 45.7365 45.8998 40.4828 45.8998 34.7142V33.4037C45.8998 30.1976 44.9989 27.1905 43.4543 24.6514ZM18.8355 4.05771C18.8589 3.8588 19.0111 3.71839 19.21 3.70669L37.99 3.16844C38.2123 3.13334 38.3527 3.29715 38.3761 3.41416L40.728 21.2464L41.0556 23.7153C41.0907 23.8791 41.0205 23.9961 40.9737 24.0429C40.9269 24.1014 40.8333 24.1833 40.6695 24.1833H39.3356L19.3036 24.2535H18.0282C17.8644 24.2535 17.7708 24.1599 17.7239 24.1131C17.6771 24.0663 17.6069 23.961 17.642 23.727L17.7825 21.4336L18.8355 4.05771ZM42.8459 34.7142C42.8459 39.4414 40.5408 43.7239 36.6795 46.1928C34.6669 47.4799 32.3501 48.1586 29.9748 48.1586H28.7111C21.6204 48.1586 15.8518 42.1326 15.8518 34.7142V33.4037C15.8518 30.9816 16.4719 28.6999 17.5601 26.7341C17.7122 26.7575 17.8644 26.7692 18.0282 26.7692L40.6812 26.7107C40.8216 26.7107 40.9737 26.7107 41.1141 26.6756C42.214 28.6531 42.8459 30.9582 42.8459 33.4037V34.7142Z" fill="#E65D3E"/>
    <path d="M25.3527 20.3574C25.3527 20.3574 25.3176 20.3574 25.2942 20.3574C24.5922 20.3223 24.0539 19.7372 24.089 19.0469L24.5103 9.29997C24.5454 8.60961 25.1304 8.04797 25.8208 8.09477C26.5228 8.12987 27.0611 8.71492 27.026 9.40528L26.6047 19.1522C26.5813 19.8308 26.0197 20.3574 25.341 20.3574H25.3527Z" fill="#E65D3E"/>
    <path d="M33.3446 20.3571C32.6777 20.3571 32.1277 19.8306 32.0809 19.1636L31.5427 9.42842C31.5076 8.72637 32.0341 8.12962 32.7362 8.09452C33.4382 8.07111 34.0233 8.58596 34.0701 9.28801L34.6083 19.0232C34.6434 19.7253 34.1169 20.322 33.4148 20.3571C33.3914 20.3571 33.368 20.3571 33.3446 20.3571Z" fill="#E65D3E"/>
    <path d="M23.6332 37.9671C24.7318 37.9671 25.6224 37.0765 25.6224 35.9779C25.6224 34.8793 24.7318 33.9888 23.6332 33.9888C22.5346 33.9888 21.644 34.8793 21.644 35.9779C21.644 37.0765 22.5346 37.9671 23.6332 37.9671Z" fill="#E65D3E"/>
    <path d="M35.0648 37.9671C36.1634 37.9671 37.054 37.0765 37.054 35.9779C37.054 34.8793 36.1634 33.9888 35.0648 33.9888C33.9663 33.9888 33.0757 34.8793 33.0757 35.9779C33.0757 37.0765 33.9663 37.9671 35.0648 37.9671Z" fill="#E65D3E"/>
    <path d="M49.9248 60.117C46.0752 57.6481 42.8575 56.2206 39.3472 55.425L38.5398 53.3422C38.376 52.3125 37.475 51.5168 36.3868 51.5168H36.0241L29.3429 54.8516L22.6616 51.5168H22.3106C21.2224 51.5168 20.3214 52.3125 20.1459 53.3422L19.3503 55.425C15.8283 56.2206 12.6222 57.6481 8.7609 60.117C-0.833871 66.2366 -0.00310402 82.6999 0.0319988 83.3902L0.113905 84.8294H58.5835L58.6654 83.3902C58.6654 83.2732 58.7005 82.7584 58.7005 81.9393C58.7005 77.6685 57.9868 65.2538 49.9248 60.117ZM17.6653 66.4239C17.6653 65.4644 18.4493 64.6921 19.4088 64.6921H39.2887C40.2482 64.6921 41.0321 65.4644 41.0321 66.4239V81.8574H17.6653V66.4239ZM43.9222 81.7872V66.4239C43.9222 63.873 41.8512 61.7903 39.2887 61.7903H19.4088C16.8463 61.7903 14.7752 63.873 14.7752 66.4239V81.7872H3.03914C3.07424 77.844 3.788 66.9036 10.399 62.6795C14.2135 60.2458 17.3143 58.9118 20.7661 58.2332L21.5851 58.0694L22.7786 54.9803L29.3429 58.2449L35.9071 54.9803L37.1006 58.0694L37.9314 58.2332C39.6514 58.5725 41.2895 59.0757 42.9745 59.8011C44.6594 60.5149 46.3911 61.4627 48.2984 62.6795C54.9094 66.9036 55.6115 77.844 55.6466 81.7872H43.9222Z" fill="#E65D3E"/>
    <path d="M21.8075 69.0797C22.7252 69.0797 23.4691 68.3358 23.4691 67.4181C23.4691 66.5005 22.7252 65.7566 21.8075 65.7566C20.8899 65.7566 20.146 66.5005 20.146 67.4181C20.146 68.3358 20.8899 69.0797 21.8075 69.0797Z" fill="#E65D3E"/>
    <path d="M21.8075 78.5811C22.7252 78.5811 23.4691 77.8372 23.4691 76.9196C23.4691 76.002 22.7252 75.2581 21.8075 75.2581C20.8899 75.2581 20.146 76.002 20.146 76.9196C20.146 77.8372 20.8899 78.5811 21.8075 78.5811Z" fill="#E65D3E"/>
    <path d="M36.89 69.0797C37.8077 69.0797 38.5516 68.3358 38.5516 67.4181C38.5516 66.5005 37.8077 65.7566 36.89 65.7566C35.9724 65.7566 35.2285 66.5005 35.2285 67.4181C35.2285 68.3358 35.9724 69.0797 36.89 69.0797Z" fill="#E65D3E"/>
    <path d="M36.89 78.5811C37.8077 78.5811 38.5516 77.8372 38.5516 76.9196C38.5516 76.002 37.8077 75.2581 36.89 75.2581C35.9724 75.2581 35.2285 76.002 35.2285 76.9196C35.2285 77.8372 35.9724 78.5811 36.89 78.5811Z" fill="#E65D3E"/>
</svg>
