<svg width="121" height="119" viewBox="0 0 121 119" fill="none"
    xmlns="http://www.w3.org/2000/svg">
    <path fill-rule="evenodd" clip-rule="evenodd" d="M66.8674 0.00468188C71.1133 3.1275 74.7682 8.81599 80.7778 8.33844C81.695 8.09966 82.7778 4.35415 83.3688 6.37673C82.7116 8.16989 82.234 11.9107 85 11.9341C83.6241 15.8575 74.4089 13.6336 75.4964 20.9702C72.7587 22.1968 67.6854 15.1787 64.943 19.6311C63.9454 21.1481 63.6711 18.985 62.7302 18.6152C58.281 19.6405 64.4087 21.443 65.5104 22.9365C65.0565 24.5331 63.6711 23.0489 62.8342 23.6716C62.0115 24.3037 61.6995 26.1905 60.2716 25.5959C58.4796 24.3505 61.8792 21.7708 58.8389 21.1387C56.4937 17.9503 62.995 17.4587 60.7207 14.3312C61.1274 12.7581 63.6144 14.9352 64.8343 14.2329C66.962 13.3574 63.8603 11.2412 65.936 10.1925C68.1629 5.78681 63.6522 1.1892 66.8674 0V0.00468188Z" fill="#E65D3E"/>
    <path fill-rule="evenodd" clip-rule="evenodd" d="M65.1043 24.6831C69.8419 25.7693 67.9932 24.5333 68.5795 28.5597C74.7309 38.7381 72.4377 34.2341 70.2722 43.9116C64.2863 43.0548 70.4472 48.0551 66.2438 57.3205C66.7402 58.6595 69.2178 59.9705 66.6504 60.7711C65.5346 62.5642 64.8348 64.3433 62.9388 65.6449C60.239 65.3874 64.3478 62.0071 63.4683 61.1316C61.5014 60.4574 61.752 62.2459 61.3501 63.407C59.9742 63.7207 57.856 63.1588 58.4612 65.2891C55.0096 72.6865 57.6574 59.109 52.8961 67.9109C51.4871 67.0167 42.1773 69.1563 47.8511 66.8762C47.9788 66.0991 46.078 66.9605 45.3593 67.1291C44.1064 67.4615 44.9243 65.6355 44.0827 65.5232C43.5815 65.9211 42.9007 67.4615 43.6052 67.9344C49.1372 70.1302 40.6926 69.3998 39.2647 74.7418C36.65 76.2634 34.04 72.7754 34.3332 70.5562C33.9029 69.5356 36.9952 68.9784 35.9219 67.9016C29.6286 67.0261 23.4631 70.4907 17.5292 70.5C17.5575 72.1481 16.4842 73.3232 15.0516 71.8671C13.5528 71.2398 11.8742 73.0704 10.4558 71.5815C9.83639 71.4177 8.71108 71.5488 9.20754 70.5983C9.20754 68.2949 10.9286 69.4232 12.4511 69.0065C14.3707 67.0916 17.0327 66.174 19.1084 64.245C20.2337 63.5615 19.8649 62.6064 21.6853 62.5221C25.4394 61.4219 22.9193 63.2056 24.7775 62.8124C27.6002 62.9762 30.2196 61.3563 32.9242 61.8104C35.4443 59.9096 36.5885 64.451 39.0236 61.581C41.156 58.5659 36.7635 60.6634 42.8818 55.7661C44.338 52.7229 41.8794 50.3211 46.844 49.8529C48.4138 50.4054 45.7849 51.7959 45.1608 52.2126C46.8393 59.7879 64.6078 40.8075 60.5274 35.2361C59.2981 35.6949 58.5888 34.1546 60.1019 34.1405C62.1681 32.7687 58.1397 30.0111 60.9293 29.4914C62.9766 29.6365 61.109 27.1598 62.1681 26.4809C65.3833 26.0549 62.9057 29.5101 66.6315 28.335C69.7285 24.4209 61.9269 29.6599 65.0996 24.7018L65.1043 24.6831Z" fill="#E65D3E"/>
    <path fill-rule="evenodd" clip-rule="evenodd" d="M28.0062 75.4812C25.3017 73.6739 23.7082 76.5439 22.2992 78.3699C21.9068 78.7304 22.7201 80.6125 21.9068 79.7417C20.72 78.7538 20.0155 80.458 19.5002 78.6695C18.5498 79.2641 17.8122 76.6235 18.6964 76.5954C17.9446 74.5354 15.3157 76.5954 16.2755 75.3313C19.2732 75.5607 20.3465 70.0127 22.5026 71.6888C23.4435 72.3443 26.0014 71.5437 25.817 70.1157C28.0062 68.5098 33.7651 70.4575 31.8691 73.3696C29.5145 73.4539 29.6043 78.1171 28.0015 75.4812H28.0062Z" fill="#E65D3E"/>
    <path fill-rule="evenodd" clip-rule="evenodd" d="M10.7578 73.8007C11.9682 74.4703 15.2543 72.5554 14.3323 75.2521C14.0723 75.4441 13.0273 76.3196 14.0155 76.0574C15.2449 75.636 15.1976 76.7503 15.8926 77.2466C17.2307 78.9602 15.4671 79.1287 14.4978 80.6316C13.0368 82.7478 13.1834 86.1656 11.8027 87.9447C9.6656 86.8304 12.0155 89.2416 7.95872 90.0001C7.3677 89.3821 8.65377 87.7106 7.72704 86.7602C6.91379 86.2592 6.62537 87.9588 7.3677 88.1741C8.98001 89.7941 3.54258 88.4878 4.6017 87.3033C7.1502 87.102 3.62296 84.3209 5.09343 83.0662C9.06985 81.4931 7.04618 74.0723 4.01068 79.4331C3.67497 79.611 1.94445 81.0998 2.35108 80.0136C2.78607 78.815 1.08392 78.5809 1.67967 76.9236C1.12648 75.8467 -0.533122 77.2466 0.171379 75.519C0.322682 75.1117 0.734035 75.2287 1.09811 75.2802C3.72698 75.8186 2.14777 74.091 3.5615 74.1472C3.99649 74.4094 4.12415 74.5826 4.46458 74.0676C5.05088 73.2202 6.01543 74.3907 6.45988 73.4075C7.17384 71.4458 10.4458 71.7875 10.7578 73.8007Z" fill="#E65D3E"/>
    <path d="M111.818 95.338C102.956 89.6802 92.6821 89.8931 92.29 89.9043H91.9651C91.5282 89.8819 81.2544 89.6802 72.3924 95.338C63.2054 101.197 63.9897 116.961 64.0345 117.622L64.1129 119H120.097L120.176 117.622C120.187 117.51 120.209 117.006 120.209 116.199C120.209 112.065 119.504 100.234 111.818 95.338ZM100.95 116.087H83.2711V93.9152C88.055 92.7388 91.8419 92.8172 91.9203 92.8172H92.3236C92.3908 92.8172 96.1665 92.7388 100.95 93.9264V116.087Z" fill="#E65D3E"/>
    <path d="M113.409 64.3153C112.748 62.7132 111.179 61.6601 109.443 61.6601H109.174C108.345 61.6601 107.605 61.1671 107.314 60.3941C105.029 54.3777 99.3931 49 92.7942 49H91.4162C84.8284 49 79.1818 54.3777 76.8963 60.3941C76.605 61.1671 75.8655 61.6601 75.0477 61.6601H74.7676C73.8937 61.6601 73.0758 61.929 72.3812 62.3883C71.6866 62.8477 71.1376 63.5199 70.8015 64.3153C70.2637 65.6262 71.2272 67.0714 72.6501 67.0714H76.7282C76.4257 68.3262 76.2577 69.637 76.2577 70.9815V72.2363C76.2577 80.9415 83.1031 88.0334 91.5058 88.0334H92.7046C95.5391 88.0334 98.3064 87.2155 100.704 85.6918C105.241 82.7901 107.953 77.7597 107.953 72.2363V70.9815C107.953 69.637 107.785 68.3262 107.482 67.0714H111.56C112.703 67.0714 113.566 66.1303 113.566 65.0772C113.566 64.8307 113.51 64.573 113.409 64.3153ZM105.029 70.9815V72.2363C105.029 76.7513 102.821 80.8631 99.1354 83.227C97.2084 84.4594 94.9789 85.1092 92.7046 85.1092H91.5058C84.7052 85.1092 79.1818 79.3394 79.1818 72.2363V70.9815C79.1818 69.6258 79.3835 68.3038 79.7644 67.0714H104.446C104.827 68.3038 105.029 69.6258 105.029 70.9815Z" fill="#E65D3E"/>
    <path d="M86.6322 75.351C87.6841 75.351 88.5368 74.4982 88.5368 73.4464C88.5368 72.3945 87.6841 71.5417 86.6322 71.5417C85.5803 71.5417 84.7275 72.3945 84.7275 73.4464C84.7275 74.4982 85.5803 75.351 86.6322 75.351Z" fill="#E65D3E"/>
    <path d="M97.5784 75.3512C98.6303 75.3512 99.4831 74.4985 99.4831 73.4466C99.4831 72.3947 98.6303 71.542 97.5784 71.542C96.5266 71.542 95.6738 72.3947 95.6738 73.4466C95.6738 74.4985 96.5266 75.3512 97.5784 75.3512Z" fill="#E65D3E"/>
    <path d="M93.5111 97.6127C93.3431 98.4754 92.5028 99.0356 91.6513 98.8675C90.7886 98.6995 90.2172 97.8704 90.3853 97.0077C90.5534 96.145 91.3824 95.5849 92.2451 95.7529C93.1078 95.921 93.668 96.75 93.5111 97.6127Z" fill="#E65D3E"/>
    <path d="M93.5111 106.721C93.3431 107.584 92.5028 108.144 91.6513 107.976C90.7886 107.808 90.2172 106.979 90.3853 106.116C90.5534 105.253 91.3824 104.693 92.2451 104.861C93.1078 105.029 93.668 105.858 93.5111 106.721Z" fill="#E65D3E"/>
</svg>
