<svg width="24" height="24" viewBox="0 0 24 24" fill="none" xmlns="http://www.w3.org/2000/svg">
<path d="M12 24C18.6274 24 24 18.6274 24 12C24 5.37258 18.6274 0 12 0C5.37258 0 0 5.37258 0 12C0 18.6274 5.37258 24 12 24Z" fill="#4CC764"/>
<path d="M20.0025 11.301C20.0025 7.71605 16.4085 4.80005 11.9917 4.80005C7.57496 4.80005 3.98096 7.7168 3.98096 11.301C3.98096 14.5148 6.83096 17.2058 10.6807 17.715C10.9417 17.7713 11.2965 17.8868 11.3865 18.1103C11.4675 18.3128 11.439 18.63 11.4127 18.8348C11.4127 18.8348 11.319 19.4003 11.2987 19.5203C11.2635 19.7228 11.1375 20.3123 11.9925 19.9523C12.8475 19.5923 16.6057 17.2358 18.2865 15.3015C19.4475 14.028 20.004 12.7365 20.004 11.3018L20.0025 11.301Z" fill="white"/>
<path d="M17.3373 13.3711C17.4221 13.3711 17.4903 13.3029 17.4903 13.2181V12.6496C17.4903 12.5656 17.4213 12.4966 17.3373 12.4966H15.8081V11.9064H17.3373C17.4221 11.9064 17.4903 11.8381 17.4903 11.7534V11.1856C17.4903 11.1016 17.4213 11.0326 17.3373 11.0326H15.8081V10.4424H17.3373C17.4221 10.4424 17.4903 10.3741 17.4903 10.2894V9.7216C17.4903 9.6376 17.4213 9.5686 17.3373 9.5686H15.0866C15.0018 9.5686 14.9336 9.63685 14.9336 9.7216V9.7246V13.2151V13.2181C14.9336 13.3029 15.0018 13.3711 15.0866 13.3711H17.3373Z" fill="#4CC764"/>
<path d="M9.01264 13.3711C9.09739 13.3711 9.16564 13.3029 9.16564 13.2181V12.6496C9.16564 12.5656 9.09664 12.4966 9.01264 12.4966H7.48339V9.7216C7.48339 9.6376 7.41439 9.5686 7.33039 9.5686H6.76189C6.67714 9.5686 6.60889 9.63685 6.60889 9.7216V13.2151V13.2181C6.60889 13.3029 6.67714 13.3711 6.76189 13.3711H9.01264Z" fill="#4CC764"/>
<path d="M10.3672 9.5686H9.79949C9.71499 9.5686 9.64648 9.6371 9.64648 9.7216V13.2174C9.64648 13.3019 9.71499 13.3704 9.79949 13.3704H10.3672C10.4517 13.3704 10.5202 13.3019 10.5202 13.2174V9.7216C10.5202 9.6371 10.4517 9.5686 10.3672 9.5686Z" fill="#4CC764"/>
<path d="M14.2354 9.5686H13.6669C13.5821 9.5686 13.5139 9.63685 13.5139 9.7216V11.7984L11.9141 9.63835C11.9104 9.6331 11.9059 9.62785 11.9021 9.6226C11.9021 9.6226 11.9021 9.6226 11.9014 9.62185C11.8984 9.61885 11.8954 9.6151 11.8924 9.6121C11.8916 9.61135 11.8901 9.6106 11.8894 9.60985C11.8864 9.6076 11.8841 9.60535 11.8811 9.6031C11.8796 9.60235 11.8781 9.60085 11.8766 9.6001C11.8744 9.59785 11.8714 9.59635 11.8684 9.59485C11.8669 9.5941 11.8654 9.5926 11.8639 9.59185C11.8609 9.59035 11.8586 9.58885 11.8556 9.58735C11.8541 9.5866 11.8526 9.58585 11.8511 9.5851C11.8481 9.5836 11.8451 9.5821 11.8421 9.58135C11.8406 9.58135 11.8391 9.57985 11.8369 9.57985C11.8339 9.5791 11.8309 9.5776 11.8279 9.57685C11.8264 9.57685 11.8241 9.5761 11.8226 9.57535C11.8196 9.57535 11.8166 9.57385 11.8136 9.5731C11.8114 9.5731 11.8091 9.5731 11.8069 9.57235C11.8039 9.57235 11.8016 9.5716 11.7986 9.5716C11.7956 9.5716 11.7934 9.5716 11.7904 9.5716C11.7889 9.5716 11.7866 9.5716 11.7851 9.5716H11.2204C11.1356 9.5716 11.0674 9.63985 11.0674 9.7246V13.2211C11.0674 13.3059 11.1356 13.3741 11.2204 13.3741H11.7889C11.8736 13.3741 11.9419 13.3059 11.9419 13.2211V11.1451L13.5431 13.3081C13.5544 13.3239 13.5679 13.3366 13.5829 13.3464C13.5829 13.3464 13.5844 13.3471 13.5844 13.3479C13.5874 13.3501 13.5904 13.3516 13.5941 13.3539C13.5956 13.3546 13.5971 13.3554 13.5986 13.3561C13.6009 13.3576 13.6039 13.3584 13.6061 13.3599C13.6084 13.3614 13.6114 13.3621 13.6136 13.3629C13.6151 13.3629 13.6166 13.3644 13.6181 13.3644C13.6219 13.3659 13.6249 13.3666 13.6286 13.3674C13.6286 13.3674 13.6301 13.3674 13.6309 13.3674C13.6436 13.3704 13.6571 13.3726 13.6706 13.3726H14.2354C14.3201 13.3726 14.3884 13.3044 14.3884 13.2196V9.7231C14.3884 9.63835 14.3201 9.5701 14.2354 9.5701V9.5686Z" fill="#4CC764"/>
</svg>
