<svg width="20" height="21" viewBox="0 0 20 21" fill="none" xmlns="http://www.w3.org/2000/svg">
<path d="M19.7275 17.2938L15.8328 13.3991C15.657 13.2233 15.4187 13.1256 15.1687 13.1256H14.532C15.6101 11.7467 16.2508 10.0122 16.2508 8.1254C16.2508 3.6369 12.6139 0 8.1254 0C3.6369 0 0 3.6369 0 8.1254C0 12.6139 3.6369 16.2508 8.1254 16.2508C10.0122 16.2508 11.7467 15.6101 13.1256 14.532V15.1687C13.1256 15.4187 13.2233 15.657 13.3991 15.8328L17.2938 19.7275C17.661 20.0947 18.2548 20.0947 18.6181 19.7275L19.7236 18.622C20.0908 18.2548 20.0908 17.661 19.7275 17.2938ZM8.1254 13.1256C5.36354 13.1256 3.12515 10.8912 3.12515 8.1254C3.12515 5.36354 5.35964 3.12515 8.1254 3.12515C10.8873 3.12515 13.1256 5.35964 13.1256 8.1254C13.1256 10.8873 10.8912 13.1256 8.1254 13.1256Z" fill="#E65D3E"/>
</svg>
