<svg width="105" height="82" viewBox="0 0 105 82" fill="none" xmlns="http://www.w3.org/2000/svg">
<path d="M104.251 47.0846L79.2033 8.12291C79.1543 8.04457 75.5118 3.10949 74.5914 1.88552C72.5547 -0.826819 66.9342 -0.542856 65.0639 2.28698C63.8204 4.15722 62.8412 5.65537 62.802 5.70433L44.7067 33.1704L33.3188 17.7189C30.6653 14.1253 25.2895 14.1253 22.6458 17.7189L0.594578 47.6427C-0.874195 49.6305 0.545619 52.4407 3.02295 52.4407H101.411C101.94 52.4407 102.478 52.333 102.939 52.0686C104.877 50.9621 105.289 48.6904 104.251 47.0748V47.0846ZM69.999 21.1265L60.5107 29.3908L55.0763 29.8999L66.6698 11.8634C68.2267 9.43501 71.7713 9.43501 73.3282 11.8634L79.2816 21.1265H69.999ZM34.0924 36.1863L27.3262 33.8167L17.133 37.7236L24.8979 25.6405C26.4548 23.2121 29.9994 23.2121 31.5563 25.6405L37.5097 34.9035L34.0924 36.1961V36.1863Z" fill="#E65D3E"/>
<path d="M103.517 76.3327C101.529 76.1075 99.6195 75.4025 98.1508 74.3058C96.8484 73.3266 94.9782 73.3071 93.6857 74.3058C90.1704 76.9986 83.7568 76.9986 80.1828 74.1687C78.9294 73.1798 77.1277 73.3658 75.8548 74.3254C72.3297 76.9888 65.9455 76.979 62.4008 74.1785C61.1475 73.1896 59.3164 73.3952 58.0337 74.3548C56.5943 75.4319 54.6947 76.1369 52.6874 76.3327C52.6188 76.3327 52.5503 76.3523 52.4915 76.3719C52.423 76.3523 52.3446 76.3327 52.2663 76.3327C50.2786 76.1173 48.3692 75.4025 46.9004 74.3058C45.5981 73.3266 43.7278 73.3071 42.4353 74.3058C38.9201 76.9986 32.5064 76.9986 28.9324 74.1687C27.679 73.1798 25.8774 73.3658 24.6044 74.3254C21.0794 76.9888 14.6951 76.979 11.1505 74.1785C9.8971 73.1896 8.06603 73.3952 6.78331 74.3548C5.34391 75.4319 3.4443 76.1369 1.43697 76.3327C0.702586 76.4013 0.173828 77.0182 0.173828 77.7232V80.5726C0.173828 81.3755 0.878839 82.0609 1.72094 81.9924C4.3941 81.7672 6.92039 80.9839 9.07459 79.7011C14.3132 82.766 21.7648 82.717 26.8663 79.7011C32.1049 82.766 39.5565 82.717 44.6581 79.7011C46.8123 80.9545 49.3777 81.7574 51.9921 81.9826C52.1586 81.9924 52.3153 81.9826 52.4621 81.9434C52.6188 81.9924 52.7853 82.012 52.9615 81.9924C55.6347 81.7672 58.161 80.9839 60.3152 79.7011C65.5538 82.766 73.0054 82.717 78.1069 79.7011C83.3455 82.766 90.7971 82.717 95.8987 79.7011C98.0528 80.9545 100.618 81.7574 103.233 81.9826C104.075 82.0512 104.78 81.3755 104.78 80.5628V77.7721C104.78 77.0671 104.251 76.4111 103.497 76.3327H103.517Z" fill="#E65D3E"/>
<path d="M103.517 63.9363C101.529 63.711 99.6195 63.006 98.1508 61.9093C96.8484 60.9302 94.9782 60.9106 93.6857 61.9093C90.1704 64.6021 83.7568 64.6021 80.1828 61.7723C78.9294 60.7833 77.1277 60.9693 75.8548 61.9289C72.3297 64.5923 65.9455 64.5825 62.4008 61.782C61.1475 60.7931 59.3164 60.9987 58.0337 61.9583C56.5943 63.0354 54.6947 63.7404 52.6874 63.9363C52.6188 63.9363 52.5503 63.9558 52.4915 63.9754C52.423 63.9558 52.3446 63.9363 52.2663 63.9363C50.2786 63.7208 48.3692 63.006 46.9004 61.9093C45.5981 60.9302 43.7278 60.9106 42.4353 61.9093C38.9201 64.6021 32.5064 64.6021 28.9324 61.7723C27.679 60.7833 25.8774 60.9693 24.6044 61.9289C21.0794 64.5923 14.6951 64.5825 11.1505 61.782C9.8971 60.7931 8.06603 60.9987 6.78331 61.9583C5.34391 63.0354 3.4443 63.7404 1.43697 63.9363C0.702586 64.0048 0.173828 64.6217 0.173828 65.3267V68.1761C0.173828 68.979 0.878839 69.6645 1.72094 69.5959C4.3941 69.3707 6.92039 68.5874 9.07459 67.3046C14.3132 70.3695 21.7648 70.3205 26.8663 67.3046C32.1049 70.3695 39.5565 70.3205 44.6581 67.3046C46.8123 68.558 49.3777 69.3609 51.9921 69.5861C52.1586 69.5959 52.3153 69.5861 52.4621 69.547C52.6188 69.5959 52.7853 69.6155 52.9615 69.5959C55.6347 69.3707 58.161 68.5874 60.3152 67.3046C65.5538 70.3695 73.0054 70.3205 78.1069 67.3046C83.3455 70.3695 90.7971 70.3205 95.8987 67.3046C98.0528 68.558 100.618 69.3609 103.233 69.5861C104.075 69.6547 104.78 68.979 104.78 68.1663V65.3756C104.78 64.6706 104.251 64.0146 103.497 63.9363H103.517Z" fill="#E65D3E"/>
</svg>
