<?xml version="1.0" encoding="UTF-8"?>
<svg id="_レイヤー_1" xmlns="http://www.w3.org/2000/svg" version="1.1" viewBox="0 0 160 160">
  <!-- Generator: Adobe Illustrator 29.6.1, SVG Export Plug-In . SVG Version: 2.1.1 Build 9)  -->
  <defs>
    <style>
      .st0 {
        fill: #e65d3e;
      }
    </style>
  </defs>
  <path class="st0" d="M90.06,55.65l-6.38-11.73c.99-2.4.94-5.2-.4-7.66h-.01c-2.34-4.32-7.74-5.91-12.05-3.57-.47.25-.91.55-1.32.87-2.51-1.27-5.59-1.33-8.25.12-2.85,1.55-4.52,4.43-4.64,7.46-1.09.13-2.16.45-3.19,1.01-4.31,2.34-5.9,7.74-3.56,12.05,1.58,2.9,4.53,4.57,7.6,4.64l6.01,11.05,26.19-14.24Z"/>
  <path class="st0" d="M68.01,81.04c4.47,8.21,14.75,11.24,22.95,6.78,8.2-4.46,11.24-14.73,6.77-22.94-1.39-2.54-3.33-4.59-5.59-6.07l-26.19,14.24c.01,2.71.68,5.45,2.06,7.99Z"/>
  <path class="st0" d="M97.45,106.58l-7.17,2.78c-.44.17-.74.61-.77,1.12l-1.21,17.91h24.39s-.9-14.1-9.78-25.92c-9.5-12.62-25.54-13.21-33.78.24-1.6,2.62-2.54,6.79-3.59,11.55-.96,4.36-2.06,10.73-2.18,14.02,0,.03.01.07.01.1h20.74l1.22-18.05c.08-1.38.95-2.6,2.21-3.09l8.38-3.39c.58-.23,1.24.06,1.47.65.23.58.64,1.85.06,2.08ZM95.85,125.4c-1.47-.04-2.63-1.26-2.59-2.72.04-1.47,1.26-2.63,2.72-2.59,1.47.04,2.63,1.26,2.59,2.72s-1.26,2.63-2.72,2.59ZM98.57,113.09c-.04,1.47-1.26,2.63-2.72,2.59-1.47-.04-2.63-1.26-2.59-2.72.04-1.47,1.26-2.63,2.72-2.59,1.47.04,2.63,1.26,2.59,2.72Z"/>
</svg>