<svg width="400" height="28" viewBox="0 0 400 28" fill="none" xmlns="http://www.w3.org/2000/svg">
<path d="M60.8845 20.82C60.6494 20.5261 60.238 20.5026 59.9441 20.7377C58.3571 22.0425 56.3352 22.8419 54.1017 22.8419C48.3886 22.8419 43.8627 17.5873 45.1206 11.6627C45.8729 8.10082 48.7882 5.26781 52.3619 4.60951C55.2655 4.08053 57.9457 4.90339 59.9441 6.54913C60.2262 6.78423 60.6494 6.76072 60.8728 6.46684L62.6361 4.26861C62.8594 3.99824 62.8242 3.58681 62.5538 3.3517C60.2497 1.45911 57.3109 0.31885 54.1017 0.31885C46.59 0.31885 40.5124 6.57264 40.8063 14.143C41.0649 20.9963 46.731 26.6623 53.5844 26.921C56.9935 27.0503 60.1322 25.8983 62.5656 23.8999C62.8359 23.6765 62.8712 23.2651 62.6478 22.9947L60.8845 20.7965V20.82Z" fill="#ECE9E8"/>
<path d="M78.9285 0.342288C71.5931 0.342288 65.6214 6.31395 65.6214 13.6492C65.6214 20.9845 71.5931 26.9561 78.9285 26.9561C86.2638 26.9561 92.2356 20.9845 92.2356 13.6492C92.2356 6.31395 86.2638 0.342288 78.9285 0.342288ZM78.9285 22.8418C73.8619 22.8418 69.7358 18.7157 69.7358 13.6492C69.7358 8.58271 73.8619 4.45662 78.9285 4.45662C83.995 4.45662 88.1212 8.58271 88.1212 13.6492C88.1212 18.7157 83.995 22.8418 78.9285 22.8418Z" fill="#ECE9E8"/>
<path d="M36.563 0.354007H21.998C21.6218 0.354007 21.3162 0.659643 21.3162 1.03581V26.051C21.3162 26.4271 21.6218 26.7328 21.998 26.7328H36.563C36.9391 26.7328 37.2448 26.4271 37.2448 26.051V23.3002C37.2448 22.9241 36.9391 22.6184 36.563 22.6184H26.1124C25.7362 22.6184 25.4306 22.3128 25.4306 21.9366V15.4477H34.7526C35.3992 15.4477 35.9164 15.1539 35.9164 14.8012V12.2856C35.9164 11.9212 35.3992 11.639 34.7526 11.639H25.4306V5.15014C25.4306 4.77398 25.7362 4.46834 26.1124 4.46834H36.563C36.9391 4.46834 37.2448 4.1627 37.2448 3.78654V1.03581C37.2448 0.659643 36.9391 0.354007 36.563 0.354007Z" fill="#ECE9E8"/>
<path d="M139.938 3.84568C135.189 -0.280412 128.442 0.471923 125.256 0.236818H123.293C122.917 0.236818 122.611 0.542455 122.611 0.918622V26.1924C122.611 26.5686 122.917 26.8742 123.293 26.8742H126.89V26.8389C127.29 26.8624 127.736 26.8742 128.207 26.8742C131.557 26.8742 136.412 26.2747 139.88 23.3476C142.607 21.0201 143.994 17.7286 143.994 13.532C143.994 9.33537 142.63 6.17321 139.938 3.85743V3.84568ZM137.117 20.0562C134.425 22.3484 130.193 22.6423 127.548 22.5718C127.184 22.5718 126.89 22.2661 126.89 21.89V5.09173C126.89 4.71556 127.196 4.40993 127.56 4.40993C130.252 4.37466 134.472 4.75083 137.152 7.07837C138.88 8.58304 139.715 10.6872 139.715 13.5202C139.715 16.3533 138.857 18.5632 137.117 20.0562Z" fill="#ECE9E8"/>
<path d="M117.286 0.236818H114.535C114.159 0.236818 113.853 0.542454 113.853 0.918622V18.7396C113.853 19.057 113.43 19.1863 113.266 18.9159L101.463 0.55421C101.334 0.354371 101.122 0.236818 100.887 0.236818H97.443C97.0668 0.236818 96.7611 0.542454 96.7611 0.918622V26.1689C96.7611 26.545 97.0668 26.8507 97.443 26.8507H100.194C100.57 26.8507 100.876 26.545 100.876 26.1689V8.33618C100.876 8.01879 101.299 7.88948 101.463 8.15985L113.277 26.545C113.407 26.7449 113.618 26.8624 113.853 26.8624H117.286C117.662 26.8624 117.968 26.5568 117.968 26.1806V0.918622C117.968 0.542454 117.662 0.236818 117.286 0.236818Z" fill="#ECE9E8"/>
<path d="M9.37263 0.0143247C6.7982 -0.103228 4.56467 0.731394 2.88365 2.42415C0.744173 4.61062 0.0623599 7.96087 1.19088 10.7821C1.88445 12.5101 3.51844 14.7084 7.33895 15.3667C13.0873 16.3541 12.7699 18.4818 12.5113 20.1863C12.4173 20.8093 11.6649 21.8438 10.8773 22.22C9.57247 22.8312 8.03251 22.9606 6.53958 22.5961C5.04665 22.2317 4.27079 21.5147 3.90637 20.0923C3.82408 19.7749 3.49493 19.575 3.16578 19.6338L0.556086 20.0805C0.191669 20.1393 -0.0669493 20.5037 0.0153384 20.8681C0.720662 23.8422 2.58977 25.7113 5.59915 26.4401C6.45729 26.6517 7.32719 26.7575 8.19709 26.7575C9.71354 26.7575 11.1947 26.4401 12.5466 25.8171C14.498 24.9119 16.1202 22.796 16.4259 20.7858C17.19 15.637 14.4392 12.5924 8.009 11.4874C6.36325 11.2053 5.34053 10.5 4.85856 9.32447C4.30606 7.94911 4.64696 6.29162 5.70495 5.2219C6.5866 4.31674 7.72687 3.91706 9.18454 3.9876C11.9706 4.1169 12.8757 6.3504 13.1461 7.43188C13.2284 7.74927 13.534 7.94911 13.8514 7.90209L16.4846 7.5847C16.8726 7.53768 17.1312 7.17327 17.0489 6.7971C16.5199 4.21095 14.4039 0.261185 9.37263 0.0143247Z" fill="#ECE9E8"/>
<path d="M200.725 0.354043H186.16C185.784 0.354043 185.478 0.659679 185.478 1.03585V26.051C185.478 26.4272 185.784 26.7328 186.16 26.7328H200.725C201.101 26.7328 201.407 26.4272 201.407 26.051V23.3003C201.407 22.9241 201.101 22.6185 200.725 22.6185H190.274C189.898 22.6185 189.592 22.3128 189.592 21.9367V15.4478H199.02C199.608 15.4478 200.09 15.1539 200.09 14.8012V12.2856C200.09 11.9212 199.608 11.6391 199.02 11.6391H189.592V5.15018C189.592 4.77401 189.898 4.46838 190.274 4.46838H200.725C201.101 4.46838 201.407 4.16274 201.407 3.78657V1.02409C201.407 0.647924 201.101 0.342288 200.725 0.342288V0.354043Z" fill="#ECE9E8"/>
<path d="M174.229 15.7066C174.123 15.542 174.193 15.3187 174.381 15.2364C176.932 14.1902 179.448 12.039 179.448 8.13623C179.448 4.7037 177.461 2.04702 174.005 0.859737C173.359 0.636387 172.677 0.471814 171.96 0.389527C171.419 0.307241 170.867 0.271975 170.291 0.271975H162.238C161.874 0.271975 161.58 0.565856 161.58 0.930268V26.3333C161.58 26.6978 161.874 26.9916 162.238 26.9916H165.024C165.389 26.9916 165.682 26.6978 165.682 26.3333V5.05636C165.682 4.69195 165.976 4.39806 166.341 4.39806H170.279C171.172 4.39806 171.96 4.51562 172.653 4.76248C175.051 5.58534 175.322 7.09001 175.322 8.14798C175.322 11.5335 171.066 11.9332 170.596 11.9684L169.056 12.0625C168.186 12.1095 167.693 13.0852 168.163 13.814L176.333 26.7095C176.45 26.8976 176.662 27.0151 176.897 27.0151H180.189C180.706 27.0151 181.023 26.4391 180.753 25.9924L174.229 15.6948V15.7066Z" fill="#ECE9E8"/>
<path d="M314.48 15.7886C314.374 15.6241 314.445 15.4007 314.633 15.3184C317.184 14.2722 319.7 12.121 319.7 8.21826C319.7 4.78573 317.713 2.12905 314.257 0.941769C313.61 0.718419 312.929 0.553846 312.211 0.471559C311.671 0.389272 311.118 0.354007 310.542 0.354007H302.49C302.125 0.354007 301.831 0.647888 301.831 1.0123V26.4154C301.831 26.7798 302.125 27.0737 302.49 27.0737H305.276C305.64 27.0737 305.934 26.7798 305.934 26.4154V5.13839C305.934 4.77398 306.228 4.4801 306.592 4.4801H310.53C311.424 4.4801 312.211 4.59765 312.905 4.84451C315.303 5.66737 315.574 7.17205 315.574 8.23002C315.574 11.6155 311.318 12.0152 310.848 12.0505L309.308 12.1445C308.438 12.2033 307.944 13.1672 308.414 13.896L316.584 26.7915C316.702 26.9796 316.914 27.0972 317.149 27.0972H320.44C320.958 27.0972 321.275 26.5212 321.005 26.0745L314.48 15.7769V15.7886Z" fill="#ECE9E8"/>
<path d="M295.684 0.236818H292.898C292.533 0.236818 292.24 0.530699 292.24 0.895112V16.8235C292.24 17.8109 291.899 22.7481 286.573 22.7481C286.55 22.7481 286.526 22.7481 286.503 22.7481C281.236 22.7128 280.896 17.7991 280.872 16.8352V0.895112C280.872 0.530699 280.578 0.236818 280.214 0.236818H277.428C277.063 0.236818 276.769 0.530699 276.769 0.895112V16.847C276.781 20.2913 278.827 26.8037 286.479 26.8624C286.515 26.8624 286.55 26.8624 286.585 26.8624C289.371 26.8624 291.663 25.9925 293.38 24.288C296.33 21.361 296.366 17.0115 296.366 16.8352V0.895112C296.366 0.530699 296.072 0.236818 295.707 0.236818H295.684Z" fill="#ECE9E8"/>
<path d="M261.123 0.624741C261.018 0.389636 260.782 0.236818 260.524 0.236818H257.855C257.597 0.236818 257.362 0.389636 257.256 0.624741L246.006 25.9455C245.818 26.3805 246.135 26.8624 246.605 26.8624H249.662C249.92 26.8624 250.156 26.7096 250.261 26.4745L253.118 20.0561H265.108C265.238 20.0561 265.355 20.1267 265.402 20.2442L268.188 26.4745C268.294 26.7096 268.529 26.8624 268.788 26.8624H271.868C272.338 26.8624 272.655 26.3687 272.467 25.9455L261.123 0.624741ZM263.11 16.2357H254.822L258.902 7.05486C259.019 6.79624 259.384 6.79624 259.489 7.05486L263.392 15.7772C263.486 15.9888 263.333 16.2357 263.098 16.2357H263.11Z" fill="#ECE9E8"/>
<path d="M339.578 0.706773C339.472 0.471668 339.237 0.31885 338.979 0.31885H336.31C336.051 0.31885 335.816 0.471668 335.711 0.706773L324.461 26.0276C324.273 26.4625 324.59 26.9445 325.06 26.9445H328.117C328.375 26.9445 328.61 26.7916 328.716 26.5565L331.573 20.1382H343.563C343.692 20.1382 343.81 20.2087 343.857 20.3263L346.643 26.5565C346.749 26.7916 346.984 26.9445 347.243 26.9445H350.323C350.793 26.9445 351.11 26.4507 350.922 26.0276L339.578 0.706773ZM341.553 16.3177H333.265L337.345 7.13689C337.462 6.87827 337.827 6.87827 337.932 7.13689L341.835 15.8593C341.929 16.0709 341.776 16.3177 341.541 16.3177H341.553Z" fill="#ECE9E8"/>
<path d="M245.289 0.236818H227.621C227.256 0.236818 226.962 0.530699 226.962 0.895112V3.6811C226.962 4.04552 227.256 4.3394 227.621 4.3394H234.204C234.392 4.3394 234.533 4.49221 234.533 4.66854V26.1689C234.533 26.5333 234.827 26.8272 235.191 26.8272H237.977C238.342 26.8272 238.635 26.5333 238.635 26.1689V4.6803C238.635 4.49221 238.788 4.35115 238.965 4.35115H245.266C245.63 4.35115 245.924 4.05727 245.924 3.69286V0.895112C245.924 0.530699 245.63 0.236818 245.266 0.236818H245.289Z" fill="#ECE9E8"/>
<path d="M399.365 0.31885H381.697C381.333 0.31885 381.039 0.612731 381.039 0.977144V3.76314C381.039 4.12755 381.333 4.42143 381.697 4.42143H388.28C388.468 4.42143 388.609 4.57425 388.609 4.75058V26.2509C388.609 26.6153 388.903 26.9092 389.267 26.9092H392.053C392.418 26.9092 392.712 26.6153 392.712 26.2509V4.76233C392.712 4.57425 392.865 4.43318 393.041 4.43318H399.342C399.706 4.43318 400 4.1393 400 3.77489V0.977144C400 0.612731 399.706 0.31885 399.342 0.31885H399.365Z" fill="#ECE9E8"/>
<path d="M375.996 0.31885H373.245C372.869 0.31885 372.563 0.624486 372.563 1.00065V18.8216C372.563 19.139 372.14 19.2683 371.976 18.9979L360.173 0.636242C360.044 0.436403 359.832 0.31885 359.597 0.31885H356.153C355.777 0.31885 355.471 0.624486 355.471 1.00065V26.2509C355.471 26.6271 355.777 26.9327 356.153 26.9327H358.904C359.28 26.9327 359.585 26.6271 359.585 26.2509V8.41821C359.585 8.10082 360.009 7.97151 360.173 8.24188L371.987 26.6271C372.117 26.8269 372.328 26.9445 372.563 26.9445H375.996C376.372 26.9445 376.678 26.6388 376.678 26.2627V1.00065C376.678 0.624486 376.372 0.31885 375.996 0.31885Z" fill="#ECE9E8"/>
<path d="M215.007 0.0130381C212.433 -0.116269 210.199 0.718352 208.518 2.42286C206.367 4.59758 205.697 7.95958 206.826 10.7691C207.519 12.4971 209.153 14.6953 212.974 15.3536C218.722 16.3411 218.405 18.4688 218.146 20.1733C218.052 20.7963 217.3 21.8308 216.512 22.2069C215.207 22.8182 213.667 22.9475 212.174 22.5831C210.681 22.2187 209.906 21.5016 209.541 20.0792C209.459 19.7618 209.13 19.562 208.801 19.6208L206.191 20.0675C205.826 20.1262 205.568 20.4907 205.65 20.8551C206.355 23.8291 208.225 25.6982 211.234 26.4271C212.092 26.6387 212.962 26.7444 213.832 26.7444C215.348 26.7444 216.83 26.4271 218.181 25.804C220.133 24.8989 221.755 22.7829 222.061 20.7728C222.825 15.624 220.074 12.5794 213.644 11.4744C211.998 11.1923 210.975 10.487 210.493 9.31143C209.941 7.93607 210.282 6.27858 211.34 5.20885C212.221 4.3037 213.362 3.90402 214.819 3.97455C217.605 4.10386 218.511 6.33736 218.781 7.41884C218.863 7.73623 219.169 7.93607 219.486 7.88905L222.119 7.57166C222.507 7.52464 222.766 7.16022 222.684 6.78406C222.131 4.22141 220.027 0.259898 214.984 0.0247934L215.007 0.0130381Z" fill="#ECE9E8"/>
</svg>
