<svg width="400" height="28" viewBox="0 0 400 28" fill="none" xmlns="http://www.w3.org/2000/svg">
<path d="M60.8846 20.82C60.6495 20.5261 60.2381 20.5026 59.9442 20.7377C58.3572 22.0425 56.3353 22.8419 54.1018 22.8419C48.3886 22.8419 43.8628 17.5873 45.1207 11.6626C45.873 8.10081 48.7883 5.2678 52.362 4.60951C55.2655 4.08052 57.9458 4.90339 59.9442 6.54912C60.2263 6.78423 60.6495 6.76072 60.8729 6.46684L62.6362 4.26861C62.8595 3.99824 62.8243 3.5868 62.5539 3.3517C60.2498 1.45911 57.311 0.31885 54.1018 0.31885C46.5901 0.31885 40.5125 6.57263 40.8064 14.143C41.065 20.9963 46.7311 26.6623 53.5845 26.9209C56.9936 27.0502 60.1323 25.8982 62.5656 23.8998C62.836 23.6765 62.8713 23.2651 62.6479 22.9947L60.8846 20.7965V20.82Z" fill="#ECE9E8"/>
<path d="M78.9287 0.342288C71.5933 0.342288 65.6216 6.31394 65.6216 13.6492C65.6216 20.9845 71.5933 26.9561 78.9287 26.9561C86.264 26.9561 92.2358 20.9845 92.2358 13.6492C92.2358 6.31394 86.264 0.342288 78.9287 0.342288ZM78.9287 22.8418C73.8621 22.8418 69.736 18.7157 69.736 13.6492C69.736 8.5827 73.8621 4.45662 78.9287 4.45662C83.9952 4.45662 88.1214 8.5827 88.1214 13.6492C88.1214 18.7157 83.9952 22.8418 78.9287 22.8418Z" fill="#ECE9E8"/>
<path d="M36.5628 0.354006H21.9979C21.6217 0.354006 21.3161 0.659643 21.3161 1.03581V26.0509C21.3161 26.4271 21.6217 26.7327 21.9979 26.7327H36.5628C36.939 26.7327 37.2446 26.4271 37.2446 26.0509V23.3002C37.2446 22.9241 36.939 22.6184 36.5628 22.6184H26.1123C25.7361 22.6184 25.4305 22.3128 25.4305 21.9366V15.4477H34.7525C35.399 15.4477 35.9163 15.1538 35.9163 14.8012V12.2856C35.9163 11.9212 35.399 11.639 34.7525 11.639H25.4305V5.15014C25.4305 4.77397 25.7361 4.46834 26.1123 4.46834H36.5628C36.939 4.46834 37.2446 4.1627 37.2446 3.78653V1.03581C37.2446 0.659643 36.939 0.354006 36.5628 0.354006Z" fill="#ECE9E8"/>
<path d="M139.938 3.84567C135.189 -0.280412 128.441 0.471923 125.256 0.236818H123.293C122.916 0.236818 122.611 0.542454 122.611 0.918622V26.1924C122.611 26.5685 122.916 26.8742 123.293 26.8742H126.89V26.8389C127.289 26.8624 127.736 26.8742 128.206 26.8742C131.557 26.8742 136.412 26.2747 139.879 23.3476C142.607 21.0201 143.994 17.7286 143.994 13.532C143.994 9.33537 142.63 6.17321 139.938 3.85743V3.84567ZM137.117 20.0561C134.425 22.3484 130.193 22.6423 127.548 22.5718C127.184 22.5718 126.89 22.2661 126.89 21.89V5.09173C126.89 4.71556 127.195 4.40993 127.56 4.40993C130.252 4.37466 134.472 4.75083 137.152 7.07836C138.88 8.58303 139.715 10.6872 139.715 13.5202C139.715 16.3532 138.857 18.5632 137.117 20.0561Z" fill="#ECE9E8"/>
<path d="M117.286 0.236818H114.535C114.159 0.236818 113.853 0.542454 113.853 0.918622V18.7396C113.853 19.0569 113.43 19.1863 113.266 18.9159L101.463 0.554209C101.334 0.35437 101.122 0.236818 100.887 0.236818H97.4428C97.0666 0.236818 96.761 0.542454 96.761 0.918622V26.1689C96.761 26.545 97.0666 26.8507 97.4428 26.8507H100.194C100.57 26.8507 100.875 26.545 100.875 26.1689V8.33617C100.875 8.01878 101.299 7.88947 101.463 8.15984L113.277 26.545C113.407 26.7449 113.618 26.8624 113.853 26.8624H117.286C117.662 26.8624 117.968 26.5568 117.968 26.1806V0.918622C117.968 0.542454 117.662 0.236818 117.286 0.236818Z" fill="#ECE9E8"/>
<path d="M9.37262 0.0143247C6.79819 -0.103228 4.56467 0.731394 2.88365 2.42415C0.744172 4.61062 0.0623599 7.96086 1.19088 10.7821C1.88444 12.5101 3.51844 14.7084 7.33894 15.3667C13.0873 16.3541 12.7699 18.4818 12.5113 20.1863C12.4173 20.8093 11.6649 21.8438 10.8773 22.22C9.57246 22.8312 8.03251 22.9605 6.53958 22.5961C5.04664 22.2317 4.27079 21.5146 3.90637 20.0923C3.82408 19.7749 3.49493 19.575 3.16578 19.6338L0.556086 20.0805C0.191669 20.1393 -0.0669493 20.5037 0.0153384 20.8681C0.720661 23.8422 2.58977 25.7113 5.59915 26.4401C6.45729 26.6517 7.32719 26.7575 8.19709 26.7575C9.71353 26.7575 11.1947 26.4401 12.5466 25.8171C14.498 24.9119 16.1202 22.796 16.4259 20.7858C17.19 15.637 14.4392 12.5924 8.009 11.4874C6.36325 11.2053 5.34053 10.5 4.85856 9.32447C4.30605 7.94911 4.64696 6.29162 5.70494 5.22189C6.5866 4.31674 7.72687 3.91706 9.18454 3.98759C11.9706 4.1169 12.8757 6.35039 13.1461 7.43188C13.2284 7.74927 13.534 7.94911 13.8514 7.90209L16.4846 7.58469C16.8726 7.53767 17.1312 7.17326 17.0489 6.79709C16.5199 4.21094 14.4039 0.261185 9.37262 0.0143247Z" fill="#ECE9E8"/>
<path d="M200.725 0.354043H186.16C185.784 0.354043 185.478 0.659679 185.478 1.03585V26.051C185.478 26.4271 185.784 26.7328 186.16 26.7328H200.725C201.101 26.7328 201.406 26.4271 201.406 26.051V23.3003C201.406 22.9241 201.101 22.6184 200.725 22.6184H190.274C189.898 22.6184 189.592 22.3128 189.592 21.9366V15.4478H199.02C199.608 15.4478 200.09 15.1539 200.09 14.8012V12.2856C200.09 11.9212 199.608 11.6391 199.02 11.6391H189.592V5.15018C189.592 4.77401 189.898 4.46837 190.274 4.46837H200.725C201.101 4.46837 201.406 4.16274 201.406 3.78657V1.02409C201.406 0.647924 201.101 0.342288 200.725 0.342288V0.354043Z" fill="#ECE9E8"/>
<path d="M174.229 15.7066C174.123 15.542 174.193 15.3187 174.381 15.2364C176.932 14.1902 179.448 12.039 179.448 8.13622C179.448 4.7037 177.461 2.04701 174.005 0.859736C173.359 0.636387 172.677 0.471814 171.96 0.389527C171.419 0.30724 170.867 0.271975 170.291 0.271975H162.238C161.874 0.271975 161.58 0.565855 161.58 0.930268V26.3333C161.58 26.6977 161.874 26.9916 162.238 26.9916H165.024C165.389 26.9916 165.682 26.6977 165.682 26.3333V5.05635C165.682 4.69194 165.976 4.39806 166.341 4.39806H170.279C171.172 4.39806 171.96 4.51561 172.653 4.76247C175.051 5.58534 175.322 7.09001 175.322 8.14798C175.322 11.5335 171.066 11.9332 170.596 11.9684L169.056 12.0625C168.186 12.1095 167.693 13.0852 168.163 13.814L176.333 26.7095C176.45 26.8976 176.662 27.0151 176.897 27.0151H180.189C180.706 27.0151 181.023 26.4391 180.753 25.9924L174.229 15.6948V15.7066Z" fill="#ECE9E8"/>
<path d="M314.48 15.7886C314.374 15.6241 314.445 15.4007 314.633 15.3184C317.184 14.2722 319.699 12.121 319.699 8.21826C319.699 4.78573 317.713 2.12905 314.257 0.941768C313.61 0.718419 312.928 0.553845 312.211 0.471559C311.671 0.389272 311.118 0.354006 310.542 0.354006H302.49C302.125 0.354006 301.831 0.647887 301.831 1.0123V26.4154C301.831 26.7798 302.125 27.0737 302.49 27.0737H305.276C305.64 27.0737 305.934 26.7798 305.934 26.4154V5.13839C305.934 4.77397 306.228 4.48009 306.592 4.48009H310.53C311.424 4.48009 312.211 4.59765 312.905 4.84451C315.303 5.66737 315.573 7.17204 315.573 8.23001C315.573 11.6155 311.318 12.0152 310.848 12.0505L309.308 12.1445C308.438 12.2033 307.944 13.1672 308.414 13.896L316.584 26.7915C316.702 26.9796 316.913 27.0972 317.149 27.0972H320.44C320.957 27.0972 321.275 26.5212 321.004 26.0745L314.48 15.7769V15.7886Z" fill="#ECE9E8"/>
<path d="M295.684 0.236818H292.898C292.533 0.236818 292.239 0.530699 292.239 0.895111V16.8235C292.239 17.8109 291.898 22.7481 286.573 22.7481C286.55 22.7481 286.526 22.7481 286.503 22.7481C281.236 22.7128 280.895 17.7991 280.872 16.8352V0.895111C280.872 0.530699 280.578 0.236818 280.213 0.236818H277.427C277.063 0.236818 276.769 0.530699 276.769 0.895111V16.847C276.781 20.2912 278.826 26.8036 286.479 26.8624C286.514 26.8624 286.55 26.8624 286.585 26.8624C289.371 26.8624 291.663 25.9925 293.379 24.288C296.33 21.361 296.365 17.0115 296.365 16.8352V0.895111C296.365 0.530699 296.071 0.236818 295.707 0.236818H295.684Z" fill="#ECE9E8"/>
<path d="M261.123 0.624741C261.018 0.389636 260.783 0.236818 260.524 0.236818H257.855C257.597 0.236818 257.362 0.389636 257.256 0.624741L246.006 25.9455C245.818 26.3805 246.135 26.8624 246.606 26.8624H249.662C249.921 26.8624 250.156 26.7096 250.261 26.4745L253.118 20.0561H265.109C265.238 20.0561 265.355 20.1267 265.402 20.2442L268.188 26.4745C268.294 26.7096 268.529 26.8624 268.788 26.8624H271.868C272.338 26.8624 272.655 26.3687 272.467 25.9455L261.123 0.624741ZM263.11 16.2357H254.823L258.902 7.05485C259.019 6.79624 259.384 6.79624 259.489 7.05485L263.392 15.7772C263.486 15.9888 263.333 16.2357 263.098 16.2357H263.11Z" fill="#ECE9E8"/>
<path d="M339.578 0.706773C339.472 0.471668 339.237 0.31885 338.978 0.31885H336.31C336.051 0.31885 335.816 0.471668 335.71 0.706773L324.46 26.0275C324.272 26.4625 324.59 26.9444 325.06 26.9444H328.116C328.375 26.9444 328.61 26.7916 328.716 26.5565L331.572 20.1382H343.563C343.692 20.1382 343.81 20.2087 343.857 20.3263L346.643 26.5565C346.748 26.7916 346.984 26.9444 347.242 26.9444H350.322C350.792 26.9444 351.11 26.4507 350.922 26.0275L339.578 0.706773ZM341.553 16.3177H333.265L337.344 7.13688C337.462 6.87827 337.826 6.87827 337.932 7.13688L341.835 15.8593C341.929 16.0709 341.776 16.3177 341.541 16.3177H341.553Z" fill="#ECE9E8"/>
<path d="M245.289 0.236818H227.62C227.256 0.236818 226.962 0.530699 226.962 0.895111V3.6811C226.962 4.04551 227.256 4.33939 227.62 4.33939H234.203C234.391 4.33939 234.533 4.49221 234.533 4.66854V26.1689C234.533 26.5333 234.826 26.8272 235.191 26.8272H237.977C238.341 26.8272 238.635 26.5333 238.635 26.1689V4.6803C238.635 4.49221 238.788 4.35115 238.964 4.35115H245.265C245.63 4.35115 245.924 4.05727 245.924 3.69286V0.895111C245.924 0.530699 245.63 0.236818 245.265 0.236818H245.289Z" fill="#ECE9E8"/>
<path d="M399.365 0.31885H381.697C381.332 0.31885 381.038 0.612731 381.038 0.977143V3.76313C381.038 4.12755 381.332 4.42143 381.697 4.42143H388.28C388.468 4.42143 388.609 4.57424 388.609 4.75057V26.2509C388.609 26.6153 388.903 26.9092 389.267 26.9092H392.053C392.418 26.9092 392.712 26.6153 392.712 26.2509V4.76233C392.712 4.57424 392.864 4.43318 393.041 4.43318H399.342C399.706 4.43318 400 4.1393 400 3.77489V0.977143C400 0.612731 399.706 0.31885 399.342 0.31885H399.365Z" fill="#ECE9E8"/>
<path d="M375.996 0.31885H373.245C372.869 0.31885 372.563 0.624486 372.563 1.00065V18.8216C372.563 19.139 372.14 19.2683 371.975 18.9979L360.173 0.636241C360.044 0.436402 359.832 0.31885 359.597 0.31885H356.153C355.776 0.31885 355.471 0.624486 355.471 1.00065V26.2509C355.471 26.6271 355.776 26.9327 356.153 26.9327H358.903C359.28 26.9327 359.585 26.6271 359.585 26.2509V8.4182C359.585 8.10081 360.008 7.97151 360.173 8.24188L371.987 26.6271C372.116 26.8269 372.328 26.9444 372.563 26.9444H375.996C376.372 26.9444 376.678 26.6388 376.678 26.2626V1.00065C376.678 0.624486 376.372 0.31885 375.996 0.31885Z" fill="#ECE9E8"/>
<path d="M215.007 0.0130381C212.433 -0.116269 210.199 0.718352 208.518 2.42286C206.367 4.59758 205.697 7.95957 206.826 10.7691C207.519 12.4971 209.153 14.6953 212.974 15.3536C218.722 16.3411 218.405 18.4687 218.146 20.1733C218.052 20.7963 217.3 21.8307 216.512 22.2069C215.207 22.8182 213.667 22.9475 212.174 22.5831C210.681 22.2187 209.906 21.5016 209.541 20.0792C209.459 19.7618 209.13 19.562 208.801 19.6208L206.191 20.0675C205.826 20.1262 205.568 20.4906 205.65 20.8551C206.355 23.8291 208.225 25.6982 211.234 26.427C212.092 26.6386 212.962 26.7444 213.832 26.7444C215.348 26.7444 216.83 26.427 218.181 25.804C220.133 24.8989 221.755 22.7829 222.061 20.7728C222.825 15.624 220.074 12.5794 213.644 11.4744C211.998 11.1923 210.975 10.4869 210.493 9.31143C209.941 7.93606 210.282 6.27858 211.34 5.20885C212.221 4.3037 213.362 3.90402 214.819 3.97455C217.605 4.10386 218.511 6.33735 218.781 7.41883C218.863 7.73622 219.169 7.93606 219.486 7.88904L222.119 7.57165C222.507 7.52463 222.766 7.16022 222.684 6.78405C222.131 4.22141 220.027 0.259898 214.984 0.0247933L215.007 0.0130381Z" fill="#ECE9E8"/>
</svg>
