<svg width="140" height="48" viewBox="0 0 140 48" fill="none" xmlns="http://www.w3.org/2000/svg">
<path d="M59.5058 20.0898C59.2785 19.8073 58.879 19.7867 58.6035 20.014C57.0675 21.2745 55.1182 22.0391 52.9691 22.0391C47.4518 22.0391 43.0917 16.9695 44.2971 11.2524C45.0203 7.8153 47.8375 5.08076 51.2884 4.44706C54.085 3.93735 56.6749 4.73636 58.6035 6.3206C58.879 6.54791 59.2785 6.52035 59.5058 6.24483L61.2072 4.12332C61.4207 3.85469 61.3932 3.46207 61.1245 3.24166C58.9066 1.41633 56.0618 0.321137 52.9691 0.321137C45.7229 0.321137 39.8543 6.35504 40.1367 13.6632C40.3916 20.2757 45.8538 25.7448 52.4663 25.9997C55.7519 26.1237 58.7895 25.0078 61.1314 23.086C61.3932 22.8725 61.4276 22.473 61.2141 22.2044L59.5127 20.0829L59.5058 20.0898Z" fill="#E65D3E"/>
<path d="M76.9184 0.328003C69.8375 0.328003 64.0791 6.08639 64.0791 13.1673C64.0791 20.2482 69.8375 26.0065 76.9184 26.0065C83.9993 26.0065 89.7576 20.2482 89.7576 13.1673C89.7576 6.08639 83.9993 0.328003 76.9184 0.328003ZM76.9184 22.039C72.0279 22.039 68.0466 18.0578 68.0466 13.1673C68.0466 8.27678 72.0279 4.2955 76.9184 4.2955C81.8089 4.2955 85.7901 8.27678 85.7901 13.1673C85.7901 18.0578 81.8089 22.039 76.9184 22.039Z" fill="#E65D3E"/>
<path d="M36.0312 0.3349H21.9727C21.6077 0.3349 21.3184 0.631085 21.3184 0.989262V25.1387C21.3184 25.5037 21.6145 25.793 21.9727 25.793H36.0312C36.3962 25.793 36.6855 25.4968 36.6855 25.1387V22.4799C36.6855 22.1148 36.3893 21.8255 36.0312 21.8255H25.9402C25.5752 21.8255 25.2859 21.5293 25.2859 21.1712V14.9099H34.2816C34.9015 14.9099 35.4044 14.6275 35.4044 14.2831V11.8586C35.4044 11.5142 34.9015 11.2317 34.2816 11.2317H25.2859V4.96365C25.2859 4.59858 25.582 4.30929 25.9402 4.30929H36.0312C36.3962 4.30929 36.6855 4.0131 36.6855 3.65492V0.989262C36.6855 0.624197 36.3893 0.3349 36.0312 0.3349Z" fill="#E65D3E"/>
<path d="M135.811 3.70315C131.224 -0.271236 124.708 0.452006 121.629 0.224701H119.734C119.369 0.224701 119.08 0.520886 119.08 0.879063V25.2695C119.08 25.6346 119.376 25.9239 119.734 25.9239H123.206V25.8895C123.599 25.9101 124.019 25.9239 124.48 25.9239C127.711 25.9239 132.395 25.3453 135.749 22.5143C138.38 20.2757 139.723 17.0866 139.723 13.0433C139.723 9.00004 138.401 5.94176 135.804 3.70315H135.811ZM133.09 19.3527C130.487 21.5638 126.416 21.8531 123.853 21.7773C123.495 21.7635 123.213 21.4742 123.213 21.1229V4.90855C123.213 4.54349 123.502 4.25419 123.867 4.25419C126.464 4.22664 130.535 4.58482 133.125 6.83031C134.785 8.28368 135.604 10.3088 135.604 13.0502C135.604 15.7916 134.778 17.92 133.09 19.3596V19.3527Z" fill="#E65D3E"/>
<path d="M113.942 0.224692H111.29C110.925 0.224692 110.629 0.520877 110.629 0.885942V18.0853C110.629 18.3953 110.222 18.5124 110.057 18.2506L98.6711 0.527765C98.5471 0.341788 98.3404 0.224692 98.12 0.224692H94.7931C94.428 0.224692 94.1319 0.520877 94.1319 0.885942V25.2558C94.1319 25.6208 94.428 25.917 94.7931 25.917H97.445C97.8101 25.917 98.1062 25.6208 98.1062 25.2558V8.04259C98.1062 7.73263 98.5126 7.61554 98.6779 7.87728L110.078 25.6208C110.202 25.8068 110.408 25.9239 110.629 25.9239H113.949C114.314 25.9239 114.61 25.6277 114.61 25.2626V0.879054C114.61 0.513989 114.314 0.217804 113.949 0.217804L113.942 0.224692Z" fill="#E65D3E"/>
<path d="M9.78776 0.0111646C7.30807 -0.105932 5.14524 0.699966 3.52655 2.33932C1.45326 4.44016 0.798897 7.67753 1.89409 10.3983C2.56912 12.0721 4.13958 14.1936 7.82467 14.8273C13.3695 15.7847 13.0665 17.8305 12.8185 19.4767C12.7289 20.076 12.0057 21.0816 11.2411 21.4398C9.98062 22.0253 8.4997 22.1561 7.05322 21.8049C5.61362 21.4536 4.86283 20.7579 4.51154 19.3872C4.42888 19.0772 4.11892 18.8912 3.80207 18.9394L1.28795 19.3665C0.936657 19.4285 0.688688 19.7729 0.771345 20.1242C1.45326 22.9896 3.25792 24.8011 6.15777 25.5037C6.98434 25.7035 7.83156 25.8068 8.66501 25.8068C10.1253 25.8068 11.558 25.4968 12.8598 24.8976C14.7402 24.0228 16.3107 21.9839 16.6 20.0415C17.3439 15.0753 14.6851 12.141 8.47904 11.0733C6.89479 10.7978 5.89603 10.1159 5.44142 8.97936C4.90416 7.64998 5.23478 6.05885 6.25421 5.01875C7.10832 4.15086 8.2104 3.75825 9.61556 3.82713C12.3019 3.95111 13.1767 6.10017 13.4453 7.14715C13.5211 7.45023 13.8173 7.64309 14.1272 7.60865L16.6758 7.30558C17.0477 7.26425 17.3026 6.91296 17.2268 6.5479C16.6827 4.05443 14.6438 0.238469 9.78776 0.0111646Z" fill="#E65D3E"/>
<path d="M22.944 32.3297H14.4098C14.1893 32.3297 14.0103 32.5088 14.0103 32.7293V47.387C14.0103 47.6074 14.1893 47.7865 14.4098 47.7865H22.944C23.1644 47.7865 23.3435 47.6074 23.3435 47.387V45.7752C23.3435 45.5547 23.1644 45.3757 22.944 45.3757H16.8206C16.6002 45.3757 16.4211 45.1966 16.4211 44.9762V41.174H21.9453C22.2897 41.174 22.5721 41.0018 22.5721 40.7951V39.3211C22.5721 39.1076 22.2897 38.9422 21.9453 38.9422H16.4211V35.1401C16.4211 34.9196 16.6002 34.7406 16.8206 34.7406H22.944C23.1644 34.7406 23.3435 34.5615 23.3435 34.3411V32.7293C23.3435 32.5088 23.1644 32.3297 22.944 32.3297Z" fill="#E65D3E"/>
<path d="M7.41839 41.3324C7.3564 41.236 7.39773 41.1051 7.50794 41.0569C9.00264 40.4438 10.4767 39.1833 10.4767 36.8965C10.4767 34.8852 9.3126 33.3285 7.28752 32.6328C6.90868 32.502 6.50918 32.4055 6.08901 32.3573C5.77216 32.3091 5.44842 32.2884 5.11091 32.2884H0.385729C0.1722 32.2884 0 32.4606 0 32.6742V47.5592C0 47.7727 0.1722 47.9449 0.385729 47.9449H2.01819C2.23172 47.9449 2.40392 47.7727 2.40392 47.5592V35.085C2.40392 34.8714 2.57612 34.6992 2.78965 34.6992H5.09713C5.62062 34.6992 6.08212 34.7681 6.48851 34.9128C7.89367 35.3949 8.05209 36.2766 8.05209 36.8965C8.05209 38.8803 5.55863 39.1145 5.28311 39.1351L4.38078 39.1902C3.87107 39.2178 3.58177 39.7895 3.85729 40.2165L8.64446 47.7727C8.71334 47.8829 8.83733 47.9518 8.97509 47.9518H10.9037C11.2068 47.9518 11.3928 47.6143 11.2344 47.3525L7.41151 41.3186L7.41839 41.3324Z" fill="#E65D3E"/>
<path d="M89.6063 41.3806C89.5443 41.2842 89.5857 41.1533 89.6959 41.1051C91.1906 40.4921 92.6646 39.2316 92.6646 36.9447C92.6646 34.9334 91.5005 33.3767 89.4755 32.681C89.0966 32.5502 88.6971 32.4537 88.277 32.4055C87.9601 32.3573 87.6364 32.3366 87.2989 32.3366H82.5806C82.367 32.3366 82.1948 32.5088 82.1948 32.7224V47.6074C82.1948 47.8209 82.367 47.9931 82.5806 47.9931H84.213C84.4266 47.9931 84.5988 47.8209 84.5988 47.6074V35.1332C84.5988 34.9196 84.771 34.7475 84.9845 34.7475H87.292C87.8155 34.7475 88.277 34.8163 88.6833 34.961C90.0885 35.4431 90.2469 36.3248 90.2469 36.9447C90.2469 38.9285 87.7535 39.1627 87.4779 39.1833L86.5756 39.2384C86.0659 39.2729 85.7766 39.8377 86.0521 40.2648L90.8393 47.8209C90.9082 47.9311 91.0322 48 91.1699 48H93.0986C93.4016 48 93.5876 47.6625 93.4292 47.4007L89.6063 41.3668V41.3806Z" fill="#E65D3E"/>
<path d="M78.5926 32.2609H76.9601C76.7466 32.2609 76.5744 32.4331 76.5744 32.6466V41.9799C76.5744 42.5585 76.3747 45.4514 73.2544 45.4514C73.2406 45.4514 73.2268 45.4514 73.2131 45.4514C70.1272 45.4308 69.9275 42.5516 69.9137 41.9868V32.6466C69.9137 32.4331 69.7415 32.2609 69.528 32.2609H67.8955C67.682 32.2609 67.5098 32.4331 67.5098 32.6466V41.9936C67.5167 44.0118 68.7152 47.8278 73.1993 47.8622C73.2199 47.8622 73.2406 47.8622 73.2613 47.8622C74.8937 47.8622 76.2369 47.3525 77.2425 46.3538C78.9714 44.6386 78.9921 42.0901 78.9921 41.9868V32.6466C78.9921 32.4331 78.8199 32.2609 78.6064 32.2609H78.5926Z" fill="#E65D3E"/>
<path d="M58.3414 32.4882C58.2794 32.3504 58.1417 32.2609 57.9901 32.2609H56.4265C56.275 32.2609 56.1372 32.3504 56.0753 32.4882L49.4834 47.325C49.3732 47.5798 49.5592 47.8622 49.8347 47.8622H51.6256C51.7771 47.8622 51.9149 47.7727 51.9769 47.6349L53.6507 43.8741H60.6764C60.7522 43.8741 60.8211 43.9154 60.8486 43.9843L62.4811 47.6349C62.5431 47.7727 62.6809 47.8622 62.8324 47.8622H64.6371C64.9126 47.8622 65.0986 47.5729 64.9883 47.325L58.3414 32.4882ZM59.5055 41.6355H54.6494L57.0396 36.2559C57.1085 36.1044 57.322 36.1044 57.384 36.2559L59.6708 41.3668C59.7259 41.4908 59.6364 41.6355 59.4986 41.6355H59.5055Z" fill="#E65D3E"/>
<path d="M104.305 32.5364C104.243 32.3986 104.106 32.3091 103.954 32.3091H102.39C102.239 32.3091 102.101 32.3986 102.039 32.5364L95.4473 47.3732C95.3371 47.628 95.5231 47.9104 95.7986 47.9104H97.5895C97.741 47.9104 97.8788 47.8209 97.9407 47.6831L99.6145 43.9223H106.64C106.716 43.9223 106.785 43.9636 106.813 44.0325L108.445 47.6831C108.507 47.8209 108.645 47.9104 108.796 47.9104H110.601C110.876 47.9104 111.062 47.6212 110.952 47.3732L104.305 32.5364ZM105.469 41.6837H100.613L103.003 36.3041C103.072 36.1526 103.286 36.1526 103.348 36.3041L105.635 41.415C105.69 41.539 105.6 41.6837 105.462 41.6837H105.469Z" fill="#E65D3E"/>
<path d="M49.0636 32.2609H38.7109C38.4974 32.2609 38.3252 32.4331 38.3252 32.6466V34.2791C38.3252 34.4926 38.4974 34.6648 38.7109 34.6648H42.5682C42.6784 34.6648 42.7611 34.7543 42.7611 34.8577V47.4558C42.7611 47.6694 42.9333 47.8416 43.1468 47.8416H44.7793C44.9928 47.8416 45.165 47.6694 45.165 47.4558V34.8577C45.165 34.7474 45.2545 34.6648 45.3579 34.6648H49.0498C49.2634 34.6648 49.4356 34.4926 49.4356 34.2791V32.6466C49.4356 32.4331 49.2634 32.2609 49.0498 32.2609H49.0636Z" fill="#E65D3E"/>
<path d="M139.345 32.3091H128.992C128.779 32.3091 128.606 32.4813 128.606 32.6948V34.3273C128.606 34.5408 128.779 34.713 128.992 34.713H132.849C132.96 34.713 133.042 34.8026 133.042 34.9059V47.5041C133.042 47.7176 133.215 47.8898 133.428 47.8898H135.061C135.274 47.8898 135.446 47.7176 135.446 47.5041V34.9059C135.446 34.7957 135.536 34.713 135.639 34.713H139.331C139.545 34.713 139.717 34.5408 139.717 34.3273V32.6948C139.717 32.4813 139.545 32.3091 139.331 32.3091H139.345Z" fill="#E65D3E"/>
<path d="M125.651 32.3091H124.04C123.819 32.3091 123.64 32.4882 123.64 32.7086V43.1508C123.64 43.3368 123.392 43.4126 123.296 43.2541L116.38 32.4951C116.304 32.378 116.18 32.3091 116.043 32.3091H114.025C113.804 32.3091 113.625 32.4882 113.625 32.7086V47.5041C113.625 47.7245 113.804 47.9036 114.025 47.9036H115.636C115.857 47.9036 116.036 47.7245 116.036 47.5041V37.0549C116.036 36.869 116.284 36.7932 116.38 36.9516L123.303 47.7245C123.378 47.8416 123.502 47.9104 123.64 47.9104H125.651C125.872 47.9104 126.051 47.7314 126.051 47.5109V32.7086C126.051 32.4882 125.872 32.3091 125.651 32.3091Z" fill="#E65D3E"/>
<path d="M31.3131 32.13C29.8047 32.0543 28.4959 32.5433 27.511 33.5421C26.2504 34.8163 25.8578 36.7863 26.5191 38.4326C26.9255 39.4451 27.8829 40.7332 30.1215 41.1189C33.4898 41.6975 33.3038 42.9442 33.1522 43.943C33.0971 44.308 32.6563 44.9142 32.1948 45.1346C31.4302 45.4928 30.5279 45.5685 29.6531 45.355C28.7784 45.1415 28.3237 44.7213 28.1102 43.8879C28.062 43.7019 27.8691 43.5848 27.6763 43.6192L26.1471 43.881C25.9336 43.9154 25.7821 44.1289 25.8303 44.3425C26.2436 46.0851 27.3388 47.1803 29.1021 47.6074C29.6049 47.7314 30.1146 47.7934 30.6243 47.7934C31.5129 47.7934 32.3808 47.6074 33.1729 47.2423C34.3163 46.712 35.2669 45.4721 35.446 44.2943C35.8937 41.2773 34.2819 39.4933 30.5141 38.8458C29.5498 38.6805 28.9506 38.2672 28.6681 37.5784C28.3444 36.7725 28.5442 35.8013 29.1641 35.1745C29.6807 34.6441 30.3488 34.41 31.2029 34.4513C32.8354 34.5271 33.3658 35.8358 33.5242 36.4695C33.5724 36.6554 33.7515 36.7725 33.9375 36.745L35.4804 36.559C35.7077 36.5315 35.8592 36.3179 35.811 36.0975C35.4873 34.5959 34.2543 32.2747 31.2994 32.1369L31.3131 32.13Z" fill="#E65D3E"/>
</svg>
