<svg width="33" height="40" viewBox="0 0 33 40" fill="none"
    xmlns="http://www.w3.org/2000/svg">
    <path d="M9.06307 25.4245C8.09466 25.4245 7.31543 24.6452 7.31543 23.6768C7.31543 22.7084 8.09466 21.9292 9.06307 21.9292C10.0315 21.9292 10.8107 22.7084 10.8107 23.6768C10.8107 24.6452 10.0315 25.4245 9.06307 25.4245Z" fill="#E65D3E"/>
    <path d="M9.06307 18.435C8.09466 18.435 7.31543 17.6557 7.31543 16.6873C7.31543 15.7189 8.09466 14.9397 9.06307 14.9397C10.0315 14.9397 10.8107 15.7189 10.8107 16.6873C10.8107 17.6557 10.0315 18.435 9.06307 18.435Z" fill="#E65D3E"/>
    <path d="M9.06307 11.4455C8.09466 11.4455 7.31543 10.6662 7.31543 9.69783C7.31543 8.72943 8.09466 7.9502 9.06307 7.9502C10.0315 7.9502 10.8107 8.72943 10.8107 9.69783C10.8107 10.6662 10.0315 11.4455 9.06307 11.4455Z" fill="#E65D3E"/>
    <path d="M24.7904 22.5117H14.3057C13.984 22.5117 13.7231 22.7725 13.7231 23.0943V24.2594C13.7231 24.5811 13.984 24.8419 14.3057 24.8419H24.7904C25.1122 24.8419 25.373 24.5811 25.373 24.2594V23.0943C25.373 22.7725 25.1122 22.5117 24.7904 22.5117Z" fill="#E65D3E"/>
    <path d="M9.06307 32.0495C8.09466 32.0495 7.31543 31.2702 7.31543 30.3018C7.31543 29.3334 8.09466 28.5542 9.06307 28.5542C10.0315 28.5542 10.8107 29.3334 10.8107 30.3018C10.8107 31.2702 10.0315 32.0495 9.06307 32.0495Z" fill="#E65D3E"/>
    <path d="M24.7904 29.137H14.3057C13.984 29.137 13.7231 29.3978 13.7231 29.7195V30.8846C13.7231 31.2063 13.984 31.4671 14.3057 31.4671H24.7904C25.1122 31.4671 25.373 31.2063 25.373 30.8846V29.7195C25.373 29.3978 25.1122 29.137 24.7904 29.137Z" fill="#E65D3E"/>
    <path d="M24.7904 15.5225H14.3057C13.984 15.5225 13.7231 15.7833 13.7231 16.105V17.2701C13.7231 17.5918 13.984 17.8526 14.3057 17.8526H24.7904C25.1122 17.8526 25.373 17.5918 25.373 17.2701V16.105C25.373 15.7833 25.1122 15.5225 24.7904 15.5225Z" fill="#E65D3E"/>
    <path d="M24.7904 8.53271H14.3057C13.984 8.53271 13.7231 8.79353 13.7231 9.11526V10.2804C13.7231 10.6021 13.984 10.8629 14.3057 10.8629H24.7904C25.1122 10.8629 25.373 10.6021 25.373 10.2804V9.11526C25.373 8.79353 25.1122 8.53271 24.7904 8.53271Z" fill="#E65D3E"/>
    <path d="M28.9951 40H3.69196C1.65628 40 0 38.3437 0 36.308V3.69196C0 1.65628 1.65628 0 3.69196 0H28.9951C31.0307 0 32.6881 1.65628 32.6881 3.69196V36.307C32.6881 38.3426 31.0318 39.9989 28.9951 39.9989V40ZM3.69196 3.43938C3.55224 3.43938 3.43938 3.55331 3.43938 3.69196V36.307C3.43938 36.4467 3.55331 36.5595 3.69196 36.5595H28.9951C29.1348 36.5595 29.2487 36.4456 29.2487 36.307V3.69196C29.2487 3.55224 29.1348 3.43938 28.9951 3.43938H3.69196Z" fill="#E65D3E"/>
</svg>
