<svg width="41" height="36" viewBox="0 0 41 36" fill="none"
    xmlns="http://www.w3.org/2000/svg">
    <path d="M20.2496 15.2559C22.7248 15.2559 24.7304 13.2503 24.7304 10.7752C24.7304 8.30007 22.7248 6.29443 20.2496 6.29443C17.7745 6.29443 15.7689 8.30007 15.7689 10.7752C15.7689 13.2503 17.7745 15.2559 20.2496 15.2559ZM23.3864 16.3761H22.8023C22.0249 16.7332 21.1602 16.9362 20.2496 16.9362C19.3391 16.9362 18.4787 16.7332 17.697 16.3761H17.1129C14.5155 16.3761 12.4072 18.4833 12.4072 21.0818V22.5383C12.4072 23.4663 13.1595 24.2186 14.0875 24.2186H26.4107C27.3387 24.2186 28.091 23.4663 28.091 22.5383V21.0818C28.091 18.4844 25.9838 16.3761 23.3853 16.3761H23.3864Z" fill="#E65D3E"/>
    <path d="M37.1246 0H3.37476C1.51215 0 0 1.51215 0 3.37476V25.8746C0 27.7383 1.51215 29.2494 3.37476 29.2494H16.8749L15.7503 32.6241H10.6877C9.75198 32.6241 8.99973 33.3764 8.99973 34.3121C8.99973 35.2477 9.75198 36 10.6877 36H29.8128C30.7484 36 31.5007 35.2477 31.5007 34.3121C31.5007 33.3764 30.7484 32.6241 29.8128 32.6241H24.7501L23.6255 29.2494H37.1256C38.9894 29.2494 40.5004 27.7372 40.5004 25.8746V3.37476C40.5004 1.51105 38.9883 0 37.1256 0H37.1246ZM36.6354 25.7665H3.86389C3.34201 25.7665 2.91839 25.3429 2.91839 24.821V4.42835C2.91839 3.90647 3.34201 3.48285 3.86389 3.48285H36.6354C37.1573 3.48285 37.5809 3.90647 37.5809 4.42835V24.821C37.5809 25.3429 37.1573 25.7665 36.6354 25.7665Z" fill="#E65D3E"/>
</svg>
