<?xml version="1.0" encoding="utf-8"?>
<!-- Generator: Adobe Illustrator 28.3.0, SVG Export Plug-In . SVG Version: 6.00 Build 0)  -->
<svg version="1.1" id="_レイヤー_1" xmlns="http://www.w3.org/2000/svg" xmlns:xlink="http://www.w3.org/1999/xlink" x="0px"
	 y="0px" viewBox="0 0 280 96" style="enable-background:new 0 0 280 96;" xml:space="preserve">
<style type="text/css">
	.st0{fill:#E65D3E;}
</style>
<path class="st0" d="M109,50.7c6.1,0.2,11.8-1.8,16.1-5.4c0.5-0.4,0.6-1.1,0.2-1.6l-3.2-3.9v0c-0.4-0.5-1.2-0.6-1.7-0.1
	c-2.9,2.4-6.5,3.8-10.5,3.8c-10.3,0-18.4-9.4-16.1-20.1c1.3-6.4,6.6-11.5,13-12.7c5.2-0.9,10,0.5,13.6,3.5c0.5,0.4,1.3,0.4,1.7-0.1
	l3.2-3.9c0.4-0.5,0.3-1.2-0.2-1.6C121,5,115.7,2.9,110,2.9c-13.5,0-24.4,11.2-23.9,24.8C86.5,40.1,96.7,50.2,109,50.7L109,50.7z"/>
<path class="st0" d="M154.5,50.7c13.2,0,23.9-10.7,23.9-23.9S167.7,2.9,154.5,2.9c-13.2,0-23.9,10.7-23.9,23.9
	S141.3,50.7,154.5,50.7z M154.5,10.3c9.1,0,16.5,7.4,16.5,16.5s-7.4,16.5-16.5,16.5S138,35.9,138,26.8S145.4,10.3,154.5,10.3z"/>
<path class="st0" d="M78.4,2.9L78.4,2.9l-26.2,0c-0.7,0-1.2,0.6-1.2,1.2v44.9c0,0.7,0.5,1.2,1.2,1.2h26.2c0.7,0,1.2-0.6,1.2-1.2
	v-4.9c0-0.7-0.6-1.2-1.2-1.2H59.7c-0.7,0-1.2-0.6-1.2-1.2V30h16.7c1.2,0,2.1-0.5,2.1-1.2v-4.5c0-0.7-0.9-1.2-2.1-1.2H58.4V11.5
	c0-0.7,0.5-1.2,1.2-1.2h18.8c0.7,0,1.2-0.6,1.2-1.2V4.2C79.7,3.5,79.1,2.9,78.4,2.9z"/>
<path class="st0" d="M234.2,50.5h6.5v-0.1c0.7,0,1.5,0.1,2.4,0.1c6,0,14.7-1.1,21-6.3c4.9-4.2,7.4-10.1,7.4-17.6s-2.5-13.2-7.3-17.4
	l0,0c-8.5-7.4-20.7-6-26.4-6.5h-3.5c-0.7,0-1.2,0.6-1.2,1.2v45.4C233,50,233.5,50.5,234.2,50.5L234.2,50.5z M240.7,11.4
	c0-0.7,0.5-1.2,1.2-1.2c4.8-0.1,12.4,0.6,17.2,4.8c3.1,2.7,4.6,6.5,4.6,11.6s-1.5,9.1-4.7,11.7c-4.8,4.1-12.4,4.6-17.2,4.5
	c-0.7,0-1.2-0.6-1.2-1.2V11.4z"/>
<path class="st0" d="M193.9,49.3v-32c0-0.6,0.8-0.8,1.1-0.3l21.2,33c0.2,0.4,0.6,0.6,1,0.6h6.2c0.7,0,1.2-0.6,1.2-1.2V3.9
	c0-0.7-0.6-1.2-1.2-1.2l0,0l-4.9,0c-0.7,0-1.2,0.6-1.2,1.2v32c0,0.6-0.8,0.8-1.1,0.3L195,3.3c-0.2-0.3-0.6-0.6-1-0.6h-6.2
	c-0.7,0-1.2,0.6-1.2,1.2v45.3c0,0.7,0.6,1.2,1.2,1.2h4.9C193.4,50.5,193.9,50,193.9,49.3L193.9,49.3z"/>
<path class="st0" d="M42.3,39.6c1.4-9.3-3.6-14.7-15.1-16.7c-3-0.5-4.8-1.8-5.6-3.9c-1-2.5-0.4-5.4,1.5-7.4c1.6-1.6,3.6-2.3,6.3-2.2
	c5,0.2,6.6,4.2,7.1,6.2c0.1,0.6,0.7,0.9,1.3,0.8l4.7-0.6c0.7-0.1,1.2-0.7,1-1.4c-1-4.6-4.8-11.7-13.8-12.1C25,2.1,21,3.6,18,6.7
	c-3.9,3.9-5.1,9.9-3,15c1.3,3.1,4.2,7.1,11,8.2c10.3,1.8,9.8,5.6,9.3,8.6c-0.2,1.1-1.5,3-2.9,3.6c-2.3,1.1-5.1,1.3-7.8,0.7
	c-2.7-0.6-4.1-1.9-4.7-4.5c-0.1-0.6-0.7-0.9-1.3-0.8l-4.7,0.8c-0.7,0.1-1.1,0.8-1,1.4c1.3,5.3,4.6,8.7,10,10
	c1.5,0.4,3.1,0.6,4.7,0.6c2.7,0,5.4-0.6,7.8-1.7C38.8,47,41.7,43.2,42.3,39.6L42.3,39.6z"/>
<path class="st0" d="M54.1,62.5L54.1,62.5l-15.9,0c-0.4,0-0.7,0.3-0.7,0.7v27.3c0,0.4,0.3,0.7,0.7,0.7h15.9c0.4,0,0.7-0.3,0.7-0.7
	v-3c0-0.4-0.3-0.7-0.7-0.7H42.7c-0.4,0-0.7-0.3-0.7-0.7v-7.1h10.3c0.6,0,1.2-0.3,1.2-0.7v-2.7c0-0.4-0.5-0.7-1.2-0.7H42v-7.1
	c0-0.4,0.3-0.7,0.7-0.7h11.4c0.4,0,0.7-0.3,0.7-0.7v-3C54.8,62.8,54.5,62.5,54.1,62.5L54.1,62.5z"/>
<path class="st0" d="M25.2,79.2L25.2,79.2c-0.1-0.2,0-0.4,0.2-0.5c2.8-1.1,5.5-3.5,5.5-7.7c0-3.7-2.2-6.6-5.9-7.9
	c-0.7-0.2-1.5-0.4-2.2-0.5c-0.6-0.1-1.2-0.1-1.8-0.1h-8.8c-0.4,0-0.7,0.3-0.7,0.7v27.7c0,0.4,0.3,0.7,0.7,0.7h3
	c0.4,0,0.7-0.3,0.7-0.7V67.6c0-0.4,0.3-0.7,0.7-0.7h4.3c1,0,1.8,0.1,2.6,0.4c2.6,0.9,2.9,2.5,2.9,3.7c0,3.7-4.6,4.1-5.1,4.2
	l-1.7,0.1c-1,0.1-1.5,1.1-1,1.9l8.9,14.1c0.1,0.2,0.4,0.3,0.6,0.3h3.6c0.6,0,0.9-0.6,0.6-1.1L25.2,79.2L25.2,79.2z"/>
<path class="st0" d="M178.1,79.3L178.1,79.3c-0.1-0.2-0.1-0.4,0.2-0.5c2.8-1.1,5.5-3.5,5.5-7.7c0-3.7-2.2-6.6-5.9-7.9
	c-0.7-0.2-1.4-0.4-2.2-0.5c-0.6-0.1-1.2-0.1-1.8-0.1h-8.8c-0.4,0-0.7,0.3-0.7,0.7v27.7c0,0.4,0.3,0.7,0.7,0.7h3
	c0.4,0,0.7-0.3,0.7-0.7V67.7c0-0.4,0.3-0.7,0.7-0.7h4.3c1,0,1.8,0.1,2.6,0.4c2.6,0.9,2.9,2.5,2.9,3.7c0,3.7-4.6,4.1-5.1,4.2
	l-1.7,0.1c-0.9,0.1-1.5,1.1-1,1.9l8.9,14.1c0.1,0.2,0.4,0.3,0.6,0.3h3.6c0.6,0,0.9-0.6,0.6-1.1L178.1,79.3L178.1,79.3z"/>
<path class="st0" d="M157.7,62.3h-3.1c-0.4,0-0.7,0.3-0.7,0.7v17.4c0,1.1-0.4,6.5-6.2,6.5h-0.1c-5.8,0-6.1-5.4-6.1-6.4V63.1
	c0-0.4-0.3-0.7-0.7-0.7h-3c-0.4,0-0.7,0.3-0.7,0.7v17.4c0,3.8,2.2,10.9,10.6,10.9h0.1c3,0,5.5-0.9,7.4-2.8c3.2-3.2,3.3-7.9,3.3-8.1
	V63.1C158.4,62.7,158.1,62.3,157.7,62.3L157.7,62.3z"/>
<path class="st0" d="M119.9,62.8L119.9,62.8c-0.1-0.2-0.4-0.4-0.6-0.4h-2.9c-0.3,0-0.5,0.2-0.7,0.4l-12.3,27.6c-0.2,0.5,0.1,1,0.7,1
	h3.3c0.3,0,0.5-0.2,0.7-0.4l3.1-7h13.1c0.1,0,0.3,0.1,0.3,0.2l3,6.8c0.1,0.3,0.4,0.4,0.6,0.4h3.4c0.5,0,0.9-0.5,0.6-1
	C132.3,90.4,119.9,62.8,119.9,62.8z M122.1,79.8L122.1,79.8h-9l4.4-10c0.1-0.3,0.5-0.3,0.7,0l4.3,9.5
	C122.5,79.5,122.4,79.8,122.1,79.8L122.1,79.8z"/>
<path class="st0" d="M205.5,62.8L205.5,62.8c-0.1-0.2-0.4-0.4-0.6-0.4h-2.9c-0.3,0-0.5,0.2-0.6,0.4L189,90.5c-0.2,0.5,0.1,1,0.6,1
	h3.3c0.3,0,0.5-0.2,0.6-0.4l3.1-7h13.1c0.1,0,0.3,0.1,0.3,0.2l3,6.8c0.1,0.3,0.4,0.4,0.6,0.4h3.4c0.5,0,0.9-0.5,0.6-1L205.5,62.8
	L205.5,62.8z M207.6,79.9L207.6,79.9l-9,0l4.4-10c0.1-0.3,0.5-0.3,0.6,0l4.3,9.5C208.1,79.6,207.9,79.9,207.6,79.9L207.6,79.9z"/>
<path class="st0" d="M102.7,62.3H83.4c-0.4,0-0.7,0.3-0.7,0.7v3c0,0.4,0.3,0.7,0.7,0.7h7.2c0.2,0,0.4,0.2,0.4,0.4v23.4
	c0,0.4,0.3,0.7,0.7,0.7h3c0.4,0,0.7-0.3,0.7-0.7V67.2c0-0.2,0.2-0.4,0.4-0.4h6.9c0.4,0,0.7-0.3,0.7-0.7v-3
	C103.4,62.7,103.1,62.3,102.7,62.3z"/>
<path class="st0" d="M270.7,62.4h-19.3c-0.4,0-0.7,0.3-0.7,0.7v3c0,0.4,0.3,0.7,0.7,0.7h7.2c0.2,0,0.4,0.2,0.4,0.4v23.4
	c0,0.4,0.3,0.7,0.7,0.7h3c0.4,0,0.7-0.3,0.7-0.7V67.3c0-0.2,0.2-0.4,0.4-0.4h6.9c0.4,0,0.7-0.3,0.7-0.7v-3
	C271.4,62.8,271.1,62.4,270.7,62.4z"/>
<path class="st0" d="M245.2,62.4L245.2,62.4l-3,0c-0.4,0-0.7,0.3-0.7,0.7v19.4c0,0.4-0.5,0.5-0.6,0.2l-12.9-20
	c-0.1-0.2-0.4-0.3-0.6-0.3h-3.8c-0.4,0-0.7,0.3-0.7,0.7v27.5c0,0.4,0.3,0.7,0.7,0.7h3c0.4,0,0.7-0.3,0.7-0.7V71.3
	c0-0.4,0.5-0.5,0.6-0.2l12.9,20.1c0.1,0.2,0.4,0.3,0.6,0.3h3.8c0.4,0,0.7-0.3,0.7-0.7V63.2C245.9,62.8,245.6,62.4,245.2,62.4
	L245.2,62.4z"/>
<path class="st0" d="M69.7,62.1L69.7,62.1c-2.8-0.2-5.3,0.8-7.1,2.6c-2.3,2.4-3.1,6-1.8,9.1c0.8,1.9,2.5,4.3,6.7,5
	c6.3,1.1,5.9,3.4,5.6,5.2c-0.1,0.7-0.9,1.8-1.8,2.2c-1.4,0.7-3.1,0.8-4.7,0.4c-1.6-0.4-2.5-1.2-2.9-2.7c-0.1-0.4-0.5-0.6-0.8-0.5
	L60.1,84c-0.4,0.1-0.7,0.5-0.6,0.9c0.8,3.2,2.8,5.3,6.1,6.1c0.9,0.2,1.9,0.3,2.8,0.3c1.7,0,3.3-0.4,4.7-1c2.1-1,3.9-3.3,4.2-5.5
	c0.8-5.6-2.2-8.9-9.2-10.1c-1.8-0.3-2.9-1.1-3.4-2.4c-0.6-1.5-0.2-3.3,0.9-4.5c1-1,2.2-1.4,3.8-1.4c3,0.1,4,2.6,4.3,3.8
	c0.1,0.3,0.4,0.6,0.8,0.5l2.9-0.3c0.4-0.1,0.7-0.4,0.6-0.9C77.5,66.7,75.2,62.4,69.7,62.1L69.7,62.1z"/>
</svg>
