<svg width="22" height="26" viewBox="0 0 22 26" fill="none" xmlns="http://www.w3.org/2000/svg">
<path d="M19.6143 20.0088C19.3843 19.723 18.9799 19.702 18.7011 19.9321C17.1464 21.2079 15.1734 21.9818 12.9982 21.9818C7.41386 21.9818 3.00076 16.8506 4.22081 11.0641C4.95284 7.58522 7.80427 4.81745 11.2971 4.17605C14.1276 3.66015 16.749 4.46887 18.7011 6.07236C18.9799 6.30242 19.3843 6.27454 19.6143 5.99567L21.3364 3.84838C21.5525 3.57649 21.5246 3.1791 21.2527 2.956C19.0078 1.1085 16.1285 0 12.9982 0C5.66396 0 -0.275938 6.10722 0.009902 13.5042C0.267855 20.197 5.79642 25.7326 12.4893 25.9905C15.8148 26.116 18.8893 24.9866 21.2597 23.0415C21.5246 22.8254 21.5595 22.421 21.3433 22.1491L19.6213 20.0018L19.6143 20.0088Z" fill="#E65D3E"/>
</svg>
