<svg width="100" height="62" viewBox="0 0 100 62" fill="none" xmlns="http://www.w3.org/2000/svg">
<path d="M32.234 48.3324L32.1248 48.346L32.2272 48.2095L32.234 48.3324Z" fill="#E65D3E"/>
<path d="M32.2272 48.2095L32.1248 48.346L32.234 48.3324V48.2095H32.2272Z" fill="#E65D3E"/>
<path d="M47.455 50.5307L45.5344 32.9649C45.4655 31.8043 45.0456 30.7256 44.3641 29.9268C43.6276 29.0735 42.6776 28.6297 41.6932 28.698L37.8314 28.9369C37.3082 28.9711 36.8264 29.2032 36.4822 29.5923C36.3583 29.7289 36.255 29.8859 36.1793 30.0497C35.663 30.1248 35.1261 30.2614 34.5891 30.4594L34.2312 28.7799C34.1348 28.3293 33.8457 27.9334 33.4464 27.7013C33.0472 27.4691 32.5584 27.4145 32.111 27.5511L27.1477 29.094C26.3148 29.3534 25.826 30.2068 26.0326 31.0465C23.3616 32.7942 22.0193 35.7093 21.1519 41.4849L21.0831 41.9492C20.8353 43.6081 20.6425 44.9394 20.4773 46.1751L15.2938 43.9426C14.4609 43.5876 13.4834 43.9631 13.1185 44.7824L11.0603 49.3564C10.8744 49.7661 10.8675 50.2235 11.0328 50.6399C11.2048 51.0564 11.5284 51.3772 11.9483 51.5479L19.6582 54.6746L19.8578 54.7566L19.9266 60.2523C19.8991 60.7302 20.0781 61.1876 20.4154 61.5221C20.7251 61.8293 21.1451 62 21.5856 62C21.62 62 21.6613 62 21.6958 61.9932L36.7851 60.894L38.3339 60.8531C39.0292 60.7507 39.69 60.5663 40.1581 60.0611C40.4266 59.7676 40.6193 59.4194 40.7157 59.0439L41.645 58.9893C43.1595 58.8937 44.5775 58.1564 45.6514 56.9002C47.0557 55.2413 47.7097 52.9201 47.455 50.5307ZM19.8853 53.2956L12.4646 50.2849C12.3682 50.2439 12.3269 50.1688 12.3131 50.1279C12.2925 50.0869 12.2718 50.005 12.3131 49.9094L14.3714 45.3422C14.4334 45.1988 14.6054 45.1374 14.7431 45.1988L20.3052 47.5882C20.1125 49.2745 19.9886 50.9608 19.8853 53.2956ZM30.3005 40.2697C30.3212 40.4199 30.3418 40.5769 30.3694 40.7271C30.39 40.8364 30.4038 40.9524 30.4244 41.0617C30.4657 41.3279 30.507 41.5942 30.5483 41.8536C30.6172 42.2973 30.686 42.7343 30.748 43.1644L30.8237 47.7521L30.9338 49.8548L30.9889 50.8925L31.0509 51.9302L31.4777 59.9109L21.5994 60.6346C21.4893 60.6346 21.4204 60.5868 21.386 60.5527C21.3516 60.5185 21.2965 60.4503 21.3034 60.3684L21.2346 55.3505L21.2208 54.6064V54.4289C21.2277 54.2377 21.2346 54.0466 21.2414 53.8691C21.3378 51.5001 21.4548 49.8002 21.6269 48.1549C21.6545 47.9159 21.682 47.677 21.7095 47.4449C21.7371 47.2128 21.7646 46.9738 21.7921 46.7349C21.9573 45.39 22.1776 43.9699 22.4461 42.1471L22.5149 41.6829C23.3548 36.0643 24.6145 33.4291 27.1684 31.9476L27.6227 31.6882L27.368 30.7324C27.3336 30.5891 27.4162 30.4389 27.5608 30.3979L32.524 28.855C32.524 28.855 32.5859 28.8414 32.6066 28.8414C32.6754 28.8414 32.7236 28.8687 32.7512 28.8823C32.7925 28.9028 32.8613 28.9574 32.882 29.0667L33.3087 31.0465C32.2418 31.6404 31.395 32.5689 30.9132 33.668C30.1628 35.3748 29.9494 37.7028 30.3005 40.2697ZM39.1944 59.0712C39.1944 59.0712 39.16 59.119 39.1393 59.1395C39.1324 59.1395 39.1256 59.16 39.1118 59.1668C38.9122 59.3716 38.6299 59.4877 38.3339 59.4877L32.8475 59.7881L32.3381 50.2849L32.2831 49.254L32.2349 48.3324V48.2095L32.2005 47.7043L32.0903 40.7476L32.0765 40.0171L32.0628 39.2798L32.0421 37.812C32.0421 35.8458 32.6892 34.5214 33.8044 34.1391C33.9489 34.0913 34.1004 34.0572 34.2587 34.0435C34.7819 33.9889 35.2637 34.0708 35.6699 34.2688C35.8695 34.3576 36.0554 34.4873 36.2206 34.6375C36.3514 34.7467 36.4615 34.8764 36.5579 35.0198C36.8883 35.4567 37.0948 36.0302 37.1637 36.6924L38.5611 48.1344L39.4284 58.3066C39.456 58.5865 39.3734 58.8528 39.1944 59.0712Z" fill="#E65D3E"/>
<path d="M16.5949 32.5621C15.9272 28.0426 11.6936 24.9158 7.13654 25.5781C2.57946 26.2403 -0.573324 30.4389 0.0875212 34.9583C0.645109 38.6927 3.63268 41.4713 7.22603 41.9492C6.90249 42.0447 6.58583 42.1813 6.28983 42.3656C4.44497 43.4989 3.86673 45.902 5.00256 47.7316C5.60145 48.701 6.5583 49.3155 7.60464 49.5135L7.55645 51.07C7.5358 51.6571 7.99701 52.1418 8.54772 52.1009L9.64913 52.0326C10.1654 51.9985 10.5509 51.5206 10.5027 50.9676L10.3513 49.0492C10.3513 49.0492 10.3995 49.0219 10.4201 49.0083C10.8882 48.7215 11.2875 48.0798 11.5835 47.438C11.8726 46.8031 12.0653 46.1751 12.1273 45.9225C12.3751 44.8848 11.9139 43.9768 11.7005 43.6423C11.2393 42.8981 10.5647 42.3656 9.80057 42.0652L9.7868 41.8945C14.2131 41.1231 17.2488 36.9996 16.5949 32.5621ZM9.93136 43.6969C10.1654 43.8744 10.365 44.0928 10.5303 44.3591C10.606 44.482 10.8194 44.8643 10.8194 45.308C10.8194 45.4036 10.8125 45.506 10.785 45.6084C10.6679 46.1136 10.4339 46.6939 10.1998 47.1377C10.014 47.5063 9.82122 47.7726 9.69731 47.8477C9.05712 48.2368 8.30678 48.3187 7.64594 48.1139C7.05393 47.9501 6.52388 47.5746 6.1728 47.0148C5.43624 45.8269 5.81485 44.2635 7.01263 43.5262C7.26045 43.376 7.52203 43.2736 7.7905 43.219C7.97636 43.1712 8.16222 43.1507 8.34809 43.1507C8.91944 43.1507 9.47703 43.3419 9.93136 43.6969Z" fill="#E65D3E"/>
<path d="M26.6865 40.3243C26.5832 40.85 26.0738 41.1914 25.5438 41.089C25.0137 40.9866 24.6695 40.4814 24.7659 39.9557C24.8692 39.43 25.3855 39.0887 25.9086 39.1911C26.4387 39.2935 26.7898 39.7987 26.6865 40.3243Z" fill="#E65D3E"/>
<path d="M26.6865 46.5574C26.5832 47.083 26.0738 47.4244 25.5437 47.322C25.3028 47.2742 25.1032 47.1445 24.9586 46.967C24.8003 46.7622 24.7177 46.4959 24.7659 46.216C24.759 46.2092 24.7659 46.1955 24.7659 46.1887C24.8485 45.7518 25.2202 45.4377 25.647 45.4104C25.7296 45.4036 25.8191 45.4036 25.9086 45.4241C26.0876 45.4582 26.2528 45.5402 26.3836 45.6562C26.6245 45.8747 26.7553 46.2092 26.6865 46.5574Z" fill="#E65D3E"/>
<path d="M26.6865 52.2852C26.5832 52.8109 26.0738 53.1591 25.5438 53.0567C25.0137 52.9542 24.6695 52.449 24.7659 51.9234C24.8692 51.3977 25.3855 51.0563 25.9086 51.1519C26.4387 51.2543 26.7898 51.7663 26.6865 52.2852Z" fill="#E65D3E"/>
<path d="M28.779 36.6309V57.3372C28.779 57.7127 28.4693 58.0199 28.0907 58.0199C27.712 58.0199 27.4023 57.7127 27.4023 57.3372V37.2317L25.4129 36.9586C25.0411 36.9109 24.7727 36.5627 24.8277 36.1872C24.8759 35.8185 25.227 35.5591 25.6056 35.6069L28.187 35.9551C28.5243 36.0029 28.779 36.2896 28.779 36.6309Z" fill="#E65D3E"/>
<path d="M45.9404 6.46252L38.1961 0.386502C37.4871 -0.17331 36.4683 -0.118695 35.8212 0.509388L26.5625 9.43908C26.1977 9.79408 25.998 10.2856 26.0187 10.7908C26.0324 11.098 26.1288 11.3984 26.2871 11.6578C24.8002 12.0948 23.4717 12.9413 22.4391 14.1087C21.021 15.7199 20.3395 17.7612 20.5254 19.8502L20.5805 20.4783C20.7044 21.9256 21.2482 23.3047 22.15 24.4653C23.7057 26.4724 26.1013 27.6125 28.6758 27.6125C28.9305 27.6125 29.1783 27.6057 29.433 27.5852L30.087 27.5238C32.7579 27.2916 35.0227 25.858 36.3444 23.8372H36.3513C37.019 22.7995 37.4458 21.6184 37.5697 20.3691C37.5903 20.3691 37.6041 20.3622 37.6248 20.3622C37.6592 20.3554 37.6867 20.3554 37.7211 20.3418C38.1755 20.2598 38.5954 19.9936 38.8638 19.6045L46.3052 8.87927C46.8422 8.10782 46.6839 7.04281 45.9404 6.46252ZM29.97 26.1652L29.316 26.2198C26.9342 26.4314 24.6626 25.462 23.2445 23.6324C22.501 22.6834 22.0536 21.5501 21.9503 20.3554L21.8953 19.7342C21.7438 18.0138 22.3083 16.3343 23.4717 15.0031C24.5111 13.8288 25.9154 13.0506 27.4849 12.7706L31.7116 16.2524C32.7441 19.0924 34.2242 22.1851 34.885 23.5163C33.7561 24.9705 32.0007 25.9877 29.97 26.1652ZM45.1763 8.10782L37.7349 18.8262H37.728C37.6798 18.9013 37.6248 18.9422 37.5697 18.9695C37.5146 18.9969 37.4664 19.0105 37.432 19.0105C37.3632 19.0173 37.2255 19.0242 37.1016 18.9149L36.0966 18.0889L30.9406 13.8425L29.4468 12.6068L27.9048 11.337L27.5538 11.0502C27.423 10.941 27.4023 10.8113 27.3954 10.7362C27.3954 10.6679 27.4092 10.5314 27.5262 10.4153L36.7781 1.48565C36.8607 1.40372 36.9708 1.36276 37.0809 1.36276C37.1704 1.36276 37.2668 1.3969 37.3425 1.45834L45.0868 7.53435C45.2589 7.67089 45.3002 7.92349 45.1763 8.10782Z" fill="#E65D3E"/>
<path d="M24.9243 20.0346C25.4641 20.0346 25.9018 19.6005 25.9018 19.0651C25.9018 18.5297 25.4641 18.0957 24.9243 18.0957C24.3844 18.0957 23.9468 18.5297 23.9468 19.0651C23.9468 19.6005 24.3844 20.0346 24.9243 20.0346Z" fill="#E65D3E"/>
<path d="M36.4269 14.7778C36.2824 14.7778 36.1378 14.73 36.0139 14.6412C35.711 14.4159 35.6491 13.9858 35.8831 13.6855L39.7312 8.64715C39.9583 8.34676 40.392 8.28532 40.6949 8.51743C40.9978 8.74272 41.0597 9.17282 40.8257 9.47321L36.9777 14.5115C36.84 14.689 36.6335 14.7846 36.4269 14.7846V14.7778Z" fill="#E65D3E"/>
<path d="M32.8061 11.4667C32.6409 11.4667 32.4757 11.4121 32.3449 11.2892C32.0627 11.0366 32.042 10.6065 32.2967 10.3266L36.5647 5.62962C36.8194 5.34972 37.2531 5.32924 37.5353 5.58183C37.8175 5.83443 37.8382 6.26453 37.5835 6.54444L33.3155 11.2414C33.1779 11.3916 32.992 11.4667 32.8061 11.4667Z" fill="#E65D3E"/>
<path d="M99.8682 58.2929C97.4933 54.5791 91.4562 45.1032 90.0037 42.8708C89.8454 42.6046 89.9693 42.2837 90.2378 42.1813C94.0996 40.6042 97.8719 37.3956 97.8719 31.538C97.8719 26.411 94.8843 22.4377 89.6664 20.649C88.7027 20.3281 87.6632 20.0823 86.5894 19.9595C85.7702 19.8366 84.9235 19.782 84.0699 19.782H77.6129C75.4514 19.782 73.5239 20.7923 72.3055 22.3694C72.1471 22.5742 71.8787 22.6356 71.6515 22.4991C69.5726 21.2429 66.8535 20.3486 63.5217 19.782C60.9472 19.3382 59.3226 18.2391 58.586 16.3958C57.7118 14.2521 58.2487 11.6783 59.9077 10.0125C61.3051 8.61301 63.0881 7.97128 65.3804 8.08051C69.7447 8.29215 71.1765 11.7671 71.6033 13.4533C71.7479 13.9312 72.2091 14.2521 72.7323 14.1975L76.8832 13.6991C77.4752 13.6308 77.902 13.0574 77.7574 12.4771C76.897 8.46965 73.5927 2.31854 65.6695 1.94305C61.6493 1.74507 58.1248 3.0422 55.4952 5.68424C52.1153 9.0909 51.0414 14.3204 52.8312 18.7033C53.9188 21.3999 56.4796 24.8203 62.4892 25.8511C71.5001 27.394 71.0182 30.6915 70.6052 33.354C70.4606 34.3303 69.2835 35.9414 68.0306 36.5285C65.993 37.4707 63.5768 37.6823 61.2157 37.1157C58.8752 36.549 57.6567 35.4157 57.0854 33.2106C56.9546 32.7054 56.4383 32.3982 55.922 32.487L51.8261 33.1765C51.2548 33.2857 50.8418 33.8319 50.9863 34.3985C52.0946 39.0272 55.0271 41.956 59.7494 43.0893C61.0917 43.4101 62.4685 43.6286 63.8246 43.5672C66.2339 43.4579 68.9118 42.6728 70.1715 42.2495C70.5363 42.1267 70.9012 42.3997 70.9012 42.7821V58.7845C70.9012 59.3307 71.3486 59.7744 71.8993 59.7744H76.0984C76.6491 59.7744 77.0966 59.3307 77.0966 58.7845V26.9366C77.0966 26.3905 77.544 25.9467 78.0947 25.9467H84.0492C85.3916 25.9467 86.5894 26.1242 87.6288 26.4997C91.2428 27.7217 91.649 29.9746 91.649 31.5517C91.649 36.6241 85.2264 37.2249 84.5311 37.2795L82.1906 37.4229C80.8827 37.4911 80.1323 38.9453 80.8483 40.0444L93.1703 59.3375C93.3493 59.6242 93.6728 59.8017 94.0101 59.8017H99.0077C99.7856 59.8017 100.261 58.962 99.8476 58.3066L99.8682 58.2929Z" fill="#E65D3E"/>
</svg>
