<svg width="48" height="48" viewBox="0 0 48 48" fill="none"
    xmlns="http://www.w3.org/2000/svg">
    <rect opacity="0.9" width="48" height="48" fill="white"/>
    <line x1="8" y1="10.5" x2="40" y2="10.5" stroke="#E65D3E" stroke-width="3"/>
    <line x1="8" y1="22.5" x2="40" y2="22.5" stroke="#E65D3E" stroke-width="3"/>
    <path d="M16.408 33.696V42H15.316V35.808L12.556 42H11.788L9.016 35.796V42H7.924V33.696H9.1L12.172 40.56L15.244 33.696H16.408ZM19.3519 34.524V37.32H22.3999V38.22H19.3519V41.1H22.7599V42H18.2599V33.624H22.7599V34.524H19.3519ZM30.9883 42H29.8963L25.5043 35.34V42H24.4123V33.624H25.5043L29.8963 40.272V33.624H30.9883V42ZM33.9178 33.636V38.928C33.9178 39.672 34.0978 40.224 34.4578 40.584C34.8258 40.944 35.3338 41.124 35.9818 41.124C36.6218 41.124 37.1218 40.944 37.4818 40.584C37.8498 40.224 38.0338 39.672 38.0338 38.928V33.636H39.1258V38.916C39.1258 39.612 38.9858 40.2 38.7058 40.68C38.4258 41.152 38.0458 41.504 37.5658 41.736C37.0938 41.968 36.5618 42.084 35.9698 42.084C35.3778 42.084 34.8418 41.968 34.3618 41.736C33.8898 41.504 33.5138 41.152 33.2338 40.68C32.9618 40.2 32.8258 39.612 32.8258 38.916V33.636H33.9178Z" fill="#E65D3E"/>
</svg>
