<svg width="66" height="100" viewBox="0 0 66 100" fill="none" xmlns="http://www.w3.org/2000/svg">
<path d="M35.0173 4.7969C36.3923 7.34168 36.4453 10.2368 35.4233 12.7187L41.9757 24.8451L15.081 39.5632L8.91208 28.1472C5.75461 28.0729 2.7287 26.3516 1.10825 23.3531C-1.29675 18.9014 0.342951 13.3193 4.76469 10.8989C5.81878 10.3224 6.92422 9.98495 8.0457 9.85093C8.17405 6.72325 9.88114 3.74734 12.8092 2.14394C15.5431 0.648718 18.7054 0.706847 21.2836 2.01799C21.6992 1.68374 22.158 1.37857 22.6394 1.11537C27.0627 -1.30508 32.6091 0.345153 35.0141 4.79528L35.0173 4.7969Z" fill="#E65D3E"/>
<path d="M49.8517 34.3702C54.4387 42.8603 51.3246 53.4689 42.8982 58.0805C34.4735 62.6921 23.9213 59.5628 19.3327 51.0727C17.9128 48.4456 17.2326 45.6134 17.2197 42.8167L44.1144 28.0986C46.4408 29.6294 48.4318 31.743 49.8517 34.3702Z" fill="#E65D3E"/>
<path d="M37.1159 81.3421C37.2025 79.9147 38.0946 78.6585 39.3893 78.1531L47.9922 74.6475C48.5874 74.4102 49.2661 74.7121 49.5003 75.316C49.7329 75.9199 50.1613 77.2262 49.5613 77.462L42.2003 80.3394C41.751 80.5154 41.4398 80.9675 41.4077 81.4923L40.1675 99.9984H65.217C65.217 99.9984 64.2961 85.4241 55.1719 73.2153C45.4187 60.1733 28.9399 59.563 20.4798 73.4624C18.8369 76.1718 17.8759 80.4766 16.7977 85.4015C15.811 89.9065 14.6847 96.4945 14.5596 99.8951C14.5596 99.9306 14.5708 99.9661 14.5708 100H35.8645L37.1159 81.3437V81.3421ZM47.9248 96.916C46.4182 96.8772 45.2278 95.6177 45.2663 94.1015C45.3048 92.5853 46.5562 91.3872 48.0627 91.426C49.5693 91.4647 50.7598 92.7242 50.7212 94.2404C50.6827 95.7566 49.4313 96.9547 47.9248 96.916ZM47.9248 86.8773C46.4182 86.8386 45.2278 85.5791 45.2663 84.0629C45.3048 82.5467 46.5562 81.3486 48.0627 81.3873C49.5693 81.4261 50.7598 82.6856 50.7212 84.2018C50.6827 85.718 49.4313 86.9161 47.9248 86.8773Z" fill="#E65D3E"/>
</svg>
