<svg width="83" height="92" viewBox="0 0 83 92" fill="none" xmlns="http://www.w3.org/2000/svg">
<path d="M68.7542 50.5869C68.8037 50.9033 69.843 56.9551 69.843 59.269C69.843 62.7992 67.9623 65.3108 65.1908 66.3195L66.0618 90.2892C66.1113 91.2088 65.3689 91.9999 64.4385 91.9999H60.1228C59.2022 91.9999 58.4599 91.2286 58.4995 90.2892L59.3705 66.3195C56.5891 65.3108 54.7183 62.7893 54.7183 59.269C54.7183 56.9452 55.7477 50.9033 55.8071 50.5869C56.0249 49.2223 58.8657 49.2025 59.0439 50.666V60.1886C59.133 60.416 60.0634 60.4061 60.1228 60.1886C60.2218 58.4779 60.6573 50.8044 60.6672 50.6264C60.8949 49.2223 63.6862 49.2223 63.904 50.6264C63.9139 50.8044 64.3494 58.4878 64.4484 60.1886C64.5078 60.4061 65.4481 60.416 65.5273 60.1886V50.666C65.7055 49.2124 68.5562 49.2223 68.7641 50.5869H68.7542ZM76.7917 69.8497L75.7821 90.2397C75.7029 91.1791 76.4552 91.99 77.3955 91.99H81.1767C82.0775 91.99 82.8 91.2681 82.8 90.3683V51.1703C82.8 50.2803 82.0775 49.5486 81.1767 49.5486C75.6039 49.5486 66.2301 61.5829 76.7917 69.8398V69.8497Z" fill="#E65D3E"/>
<path d="M49.9177 84.0893H9.84891C4.41469 84.0893 0 79.6889 0 74.2502V36.2784C0 33.3415 1.29669 30.5925 3.55353 28.7137L33.9713 2.2521L34.0307 2.20266C37.6337 -0.734221 42.87 -0.734221 46.473 2.20266L46.6017 2.31144L76.9601 28.7236C79.2169 30.6024 80.5136 33.3514 80.5136 36.2883V43.8036C80.5136 44.2782 80.1276 44.6639 79.6525 44.6639H71.2487C70.7736 44.6639 70.3876 44.2782 70.3876 43.8036V36.4169L70.3678 36.3971L40.2568 10.2123L10.1261 36.4169V73.9832H49.9177C50.3928 73.9832 50.7788 74.3689 50.7788 74.8435V83.2389C50.7788 83.7135 50.3928 84.0992 49.9177 84.0992V84.0893Z" fill="#E65D3E"/>
</svg>
